<svg id="Layer_1" data-name="Layer 1" xmlns="http://www.w3.org/2000/svg" viewBox="0 0 405.999 450"><defs><style>.cls-1{fill:#fff}.cls-2{fill:#e3e3e3}.cls-3{fill:#3a3a3a}.cls-4{fill:#909090}.cls-5{fill:#3fb7b6}.cls-6{fill:#aaa}.cls-7{fill:#7a7a7a}.cls-8{fill:#c1c1c1}.cls-9{fill:#2f8989}.cls-10{fill:#bbb}.cls-11{fill:#4e673e}.cls-12{fill:#9cce7c}.cls-13{fill:#759b5d}.cls-14{fill:#54a5d5}.cls-15{fill:#ccc}.cls-16{fill:#3f7ca0}.cls-17{fill:#9d9d9d}.cls-18{fill:gray}.cls-19{fill:#616161}.cls-20{fill:#666}.cls-21{fill:#4d4d4d}.cls-22{fill:#c5c5c5}.cls-23{fill:#3b7272}.cls-24{fill:#d4d4d4}.cls-25{fill:#65c5c5}.cls-26{fill:#1d4646}.cls-27{fill:#2b6868}.cls-28{fill:#2c2c2c}.cls-29{fill:#6c6c6c}.cls-30{fill:#959595}.cls-31{fill:#3a7293}.cls-32{fill:#488db6}.cls-33{fill:#244a5b}.cls-34{fill:#1d394a}.cls-35{fill:#295b73}.cls-36{fill:#2c566e}.cls-37{fill:#949494}.cls-38{fill:#e8e8e8}.cls-39{fill:#162b38}.cls-40{fill:#d3d3d3}.cls-41{fill:#236767}.cls-42{fill:#606060}.cls-43{fill:#bfbfbf}.cls-44{fill:#123434}.cls-45{fill:#184545}.cls-46{fill:#f4f4f4}.cls-47{fill:#b7b7b7}.cls-48{fill:#a3a3a3}.cls-49{fill:#c2c2c2}.cls-50{fill:#1a1a1a}.cls-51{fill:#333}.cls-52{fill:#dadada}.cls-53{fill:#929292}.cls-54{fill:#145050}.cls-55{fill:#1a6b6a}.cls-56{fill:#aeaeae}.cls-57{fill:#894a2f}.cls-58{fill:#b7623f}.cls-59{fill:#5c3120}.cls-60{fill:#6b311a}.cls-61{fill:#35190d}.cls-62{fill:#502514}.cls-63{fill:#e7e7e7}.cls-64{fill:#adadad}.cls-65{fill:#102e2e}.cls-66{fill:#102735}.cls-67{fill:#153447}.cls-68{fill:#785c47}.cls-69{fill:#a07b5f}</style></defs><title>4287 [Converted]</title><path class="cls-1" d="M0 0h405.999v449.972H0z"/><path class="cls-2" d="M187.821 39.046h40.109v96.638h-40.109z"/><path class="cls-3" d="M204.643 129.504h6.465v6.246h-6.465z"/><path class="cls-4" d="M207.455 129.504h.843v6.246h-.843z"/><path class="cls-5" d="M190.757 67.955h2.627v47.421h-2.627zm5.254 0h2.627v47.421h-2.627zm5.252 0h2.627v47.421h-2.627zm5.255 0h2.626v47.421h-2.626zm5.254 0h2.627v47.421h-2.627zm5.251 0h2.627v47.421h-2.627zm5.253 0h2.628v47.421h-2.628zm-31.519-23.924h2.627v10.71h-2.627zm5.254 0h2.627v10.71h-2.627zm5.252 0h2.627v10.71h-2.627zm5.255 0h2.626v10.71h-2.626zm5.254 0h2.627v10.71h-2.627zm5.251 0h2.627v10.71h-2.627zm5.253 0h2.628v10.71h-2.628z"/><path class="cls-6" d="M185.216 57.113h45.228v8.597h-45.228z"/><path class="cls-2" d="M199.996 29.183h7.879v9.863h-7.879z"/><path class="cls-6" d="M207.875 29.183h7.881v9.863h-7.881z"/><path class="cls-7" d="M205.708 27.277h4.337v1.905h-4.337z"/><path class="cls-8" d="M227.931 65.71h-40.11l2.244 2.245h37.866V65.71z"/><path class="cls-5" d="M190.757 118.268v8.132h13.007l8.134-8.132h-21.141z"/><path class="cls-9" d="M224.904 118.268h-13.006l-8.134 8.132h21.14v-8.132z"/><path class="cls-10" d="M185.216 57.113h45.228v2.41h-45.228z"/><path class="cls-11" d="M21.962 118.902h1.592v3.456h-1.592z"/><path class="cls-12" d="M22.758 118.902h.796v3.456h-.796z"/><path class="cls-13" d="M23.555 118.902h.796v3.456h-.796z"/><path class="cls-11" d="M26.74 118.902h1.593v3.456H26.74z"/><path class="cls-12" d="M27.536 118.902h.796v3.456h-.796z"/><path class="cls-13" d="M28.333 118.902h.796v3.456h-.796z"/><path class="cls-11" d="M36.295 118.902h1.593v3.456h-1.593z"/><path class="cls-12" d="M37.091 118.902h.797v3.456h-.797z"/><path class="cls-13" d="M37.888 118.902h.796v3.456h-.796z"/><path class="cls-11" d="M41.072 118.902h1.593v3.456h-1.593z"/><path class="cls-12" d="M41.868 118.902h.797v3.456h-.797z"/><path class="cls-13" d="M42.665 118.902h.796v3.456h-.796z"/><path class="cls-2" d="M49.167 60.235h18.444v63.896H49.167z"/><path class="cls-14" d="M50.517 63.83h1.208v56.707h-1.208zm2.416 0h1.208v56.707h-1.208zm2.416 0h1.208v56.707h-1.208zm2.415 0h1.208v56.707h-1.208zm2.416 0h1.208v56.707H60.18zm2.415 0h1.208v56.707h-1.208zm2.416 0h1.208v56.707h-1.208z"/><path class="cls-2" d="M49.167 84.564h18.444v1.841H49.167zm22.159-60.613h11.012v11.835H71.326z"/><path class="cls-14" d="M72.676 25.537h1.207v8.687h-1.207zm2.416 0h1.207v8.687h-1.207zm2.415 0h1.208v8.687h-1.208zm2.415 0h1.208v8.687h-1.208z"/><path class="cls-2" d="M86.054 60.235h18.443v63.896H86.054z"/><path class="cls-14" d="M87.404 63.83h1.207v56.707h-1.207zm2.416 0h1.208v56.707H89.82zm2.415 0h1.208v56.707h-1.208zm2.416 0h1.208v56.707h-1.208zm2.416 0h1.208v56.707h-1.208zm2.414 0h1.209v56.707h-1.209zm2.417 0h1.207v56.707h-1.207z"/><path class="cls-2" d="M86.054 84.564h18.443v1.841H86.054z"/><path class="cls-15" d="M68.96 39.381h1.208v23.412L71.376 64V39.381h1.208v25.828l1.208 1.207V39.381h1.207v28.243l1.209 1.208V39.381h1.208v30.66l1.208 1.208V39.381h1.207v33.075l1.209 1.207V39.381h1.207v35.491l1.208 1.207V39.381h1.207v37.906l1.392 1.392V35.786H67.611v24.449l1.349 1.35V39.381z"/><path class="cls-6" d="M84.662 77.287v43.25h-1.207V76.079l-1.208-1.207v45.665H81.04V73.663l-1.209-1.207v48.081h-1.207V71.249l-1.208-1.208v50.496h-1.208V68.832l-1.209-1.208v52.913h-1.207V66.416l-1.208-1.207v55.328h-1.208V64l-1.208-1.207v57.744H68.96V61.585l-1.349-1.35v63.896h18.443V78.679l-1.392-1.392z"/><path class="cls-16" d="M68.96 120.537h1.208V62.793l-1.208-1.208v58.952z"/><path class="cls-14" d="M68.96 39.381v22.204l1.208 1.208V39.381H68.96z"/><path class="cls-16" d="M71.376 120.537h1.208V65.209L71.376 64v56.537z"/><path class="cls-14" d="M71.376 39.381V64l1.208 1.209V39.381h-1.208z"/><path class="cls-16" d="M73.792 120.537h1.207V67.624l-1.207-1.208v54.121z"/><path class="cls-14" d="M73.792 39.381v27.035l1.207 1.208V39.381h-1.207z"/><path class="cls-16" d="M76.208 120.537h1.208V70.041l-1.208-1.209v51.705z"/><path class="cls-14" d="M76.208 39.381v29.451l1.208 1.209v-30.66h-1.208zm2.416 0v31.868l1.207 1.207V39.381h-1.207z"/><path class="cls-16" d="M78.624 120.537h1.207V72.456l-1.207-1.207v49.288zm2.416 0h1.207V74.872l-1.207-1.209v46.874z"/><path class="cls-14" d="M81.04 39.381v34.282l1.207 1.209V39.381H81.04z"/><path class="cls-16" d="M83.455 120.537h1.207v-43.25l-1.207-1.208v44.458z"/><path class="cls-14" d="M83.455 39.381v36.698l1.207 1.208V39.381h-1.207z"/><path class="cls-6" d="M107.056 106.274h1.208v7.492h-1.208zm5.967-1.84l-1.136-1.135v1.135h1.136z"/><path class="cls-15" d="M117.925 109.337v-3.063h-1.206v1.857l1.206 1.206z"/><path class="cls-6" d="M109.471 106.274h1.208v7.492h-1.208zm2.416 0h1.206v7.492h-1.206zm-1.208-1.84v-2.343l-1.208-1.207v3.55h1.208zm8.455 9.333h1.208v-2.013l-1.208-1.208v3.221z"/><path class="cls-15" d="M115.51 106.274h-.648l.648.649v-.649zm3.624 0v4.272l1.208 1.208v-5.48h-1.208z"/><path class="cls-6" d="M114.862 106.274h-.559v7.493h1.207v-6.844l-.648-.649zm1.857 1.857v5.636h1.206v-4.43l-1.206-1.206zm-12.222-1.857h1.351v7.492h-1.351zm17.053 7.493h.805l-.805-.806v.806z"/><path class="cls-15" d="M121.55 112.961l.805.806h.586v-7.493h-1.391v6.687zm-13.286-13.455h1.207v1.378l1.208 1.207v-2.585h1.208v3.793l1.136 1.135h.07v-4.928h1.21v4.928h1.207v-4.928h1.209v4.928h1.206v-4.928h1.209v4.928h1.208v-4.928h1.208v4.928h1.391V95.91h-18.444l3.767 3.766v-.17z"/><path class="cls-6" d="M121.55 120.542h-1.208v-4.935h-1.208v4.935h-1.209v-4.935h-1.206v4.935h-1.209v-4.935h-1.207v4.935h-1.21v-4.935h-1.206v4.935h-1.208v-4.935h-1.208v4.935h-1.207v-4.935h-1.208v4.935h-1.208v-4.935h-1.351v8.524h18.444v-8.524h-1.391v4.935zm-15.702-21.036h1.208v4.928h1.208v-4.758l-3.767-3.766v8.524h1.351v-4.928z"/><path class="cls-16" d="M105.848 115.607h1.208v4.935h-1.208zm0-9.333h1.208v7.492h-1.208zm0-6.768h1.208v4.927h-1.208z"/><path class="cls-14" d="M109.471 99.506h-1.207v.17l1.207 1.208v-1.378z"/><path class="cls-16" d="M109.471 100.884l-1.207-1.208v4.758h1.207v-3.55zm-1.207 14.723h1.207v4.935h-1.207zm0-9.333h1.207v7.492h-1.207z"/><path class="cls-14" d="M111.887 99.506h-1.208v2.585l1.208 1.208v-3.793z"/><path class="cls-16" d="M110.679 106.274h1.208v7.492h-1.208zm1.208-1.84v-1.135l-1.208-1.208v2.343h1.208zm-1.208 11.173h1.208v4.935h-1.208zm2.414 0h1.209v4.935h-1.209zm0-9.333h1.209v7.492h-1.209z"/><path class="cls-14" d="M113.093 99.506h1.209v4.927h-1.209z"/><path class="cls-16" d="M115.51 115.607h1.209v4.935h-1.209zm0-8.684v6.844h1.209v-5.636l-1.209-1.208z"/><path class="cls-14" d="M115.51 99.506h1.209v4.927h-1.209zm1.209 8.625v-1.857h-1.209v.649l1.209 1.208z"/><path class="cls-16" d="M117.925 109.337v4.43h1.209v-3.221l-1.209-1.209zm0 6.27h1.209v4.935h-1.209z"/><path class="cls-14" d="M117.925 99.506h1.209v4.927h-1.209zm1.209 11.04v-4.272h-1.209v3.063l1.209 1.209zm1.208-11.04h1.208v4.927h-1.208zm0 12.248l1.208 1.207v-6.687h-1.208v5.48z"/><path class="cls-16" d="M120.342 115.607h1.208v4.935h-1.208zm0-3.853v2.013h1.208v-.806l-1.208-1.207z"/><path class="cls-2" d="M122.941 114.352v-.585h-.586l.586.585z"/><path class="cls-15" d="M122.355 113.767h-17.858v1.84h18.444v-1.255l-.586-.585zm-8.052-8.053l-1.21-1.208-.07-.072h-8.526v1.84h10.365l-.559-.56z"/><path class="cls-2" d="M121.55 104.434h-8.527l.07.072 1.21 1.208.559.56h8.079v-1.84h-1.391z"/><path class="cls-15" d="M91.651 56.298h7.248v3.937h-7.248z"/><path class="cls-2" d="M110.071 91.974h7.248v3.936h-7.248z"/><path class="cls-17" d="M113.733 85.794h-.077l-.459 6.18h.994l-.458-6.18zM76.871 16.732h-.077l-.458 6.179h.994l-.459-6.179z"/><path class="cls-2" d="M75.564 22.911h1.268v1.04h-1.268z"/><path class="cls-6" d="M76.833 22.911h1.269v1.04h-1.269z"/><path class="cls-16" d="M19.322 124.129h108.767v3.856H19.322z"/><path class="cls-6" d="M22.252 127.984h102.906v7.765H22.252z"/><path class="cls-2" d="M19.322 122.358h29.845v1.771H19.322z"/><path class="cls-12" d="M20.37 120.709h1.593v1.649H20.37zm2.388 0h1.593v1.649h-1.593zm2.39 0h1.592v1.649h-1.592zm2.388 0h1.593v1.649h-1.593zm2.389 0h1.592v1.649h-1.592zm2.389 0h1.593v1.649h-1.593zm2.388 0h1.593v1.649h-1.593zm2.389 0h1.593v1.649h-1.593zm2.389 0h1.592v1.649H39.48zm2.388 0h1.593v1.649h-1.593zm2.389 0h1.593v1.649h-1.593zm2.389 0h1.593v1.649h-1.593z"/><path class="cls-18" d="M125.158 127.984H22.252l2.245 2.245h100.661v-2.245z"/><path class="cls-3" d="M41.141 127.984h8.021v7.748h-8.021z"/><path class="cls-19" d="M41.141 127.984h8.021v.408h-8.021zm0 .817h8.021v.406h-8.021zm0 .814h8.021v.408h-8.021zm0 .817h8.021v.407h-8.021zm0 .815h8.021v.408h-8.021zm0 .815h8.021v.407h-8.021zm0 .817h8.021v.407h-8.021zm0 .815h8.021v.407h-8.021zm0 .815h8.021v.408h-8.021zm0 .816h8.021v.407h-8.021z"/><path class="cls-20" d="M314.376 42.532v-8.979h4.105V26.83h24.472l11.613 11.613V20.027h-47.698v102.796h3.734V42.532h3.774z"/><path class="cls-21" d="M342.953 26.83v6.723h4.106v8.979h3.773v80.291h3.734v-84.38L342.953 26.83z"/><path class="cls-22" d="M347.059 42.532v-8.979h-4.106V26.83h-24.472v6.723h-4.105v8.979h-3.774v80.291h40.23V42.532h-3.773z"/><path class="cls-2" d="M339.078 13.18h7.247v3.937h-7.247z"/><path class="cls-17" d="M342.74 7h-.077l-.458 6.18h.992L342.74 7z"/><path class="cls-23" d="M327.797 31.08h5.84v2.395h-5.84zm0 4.791h5.84v2.396h-5.84zm0 4.791h5.84v2.396h-5.84zm0 4.792h5.84v2.396h-5.84zm0 4.691h5.84v2.396h-5.84zm0 4.792h5.84v2.396h-5.84zm0 4.791h5.84v2.396h-5.84zm0 4.792h5.84v2.396h-5.84zm0 4.791h5.84v2.396h-5.84zm0 4.791h5.84v2.396h-5.84zm0 4.792h5.84v2.396h-5.84zm0 4.791h5.84v2.395h-5.84zm0 4.692h5.84v2.395h-5.84zm0 4.791h5.84v2.396h-5.84zm0 4.792h5.84v2.396h-5.84zm0 4.791h5.84v2.396h-5.84zm0 4.792h5.84v2.396h-5.84zm0 4.791h5.84v2.396h-5.84zm0 4.791h5.84v2.396h-5.84zm8.76-81.254h5.838v2.396h-5.838zm0 4.791h5.838v2.396h-5.838zm0 4.792h5.838v2.396h-5.838zm0 4.691h5.838v2.396h-5.838zm0 4.792h5.838v2.396h-5.838zm0 4.791h5.838v2.396h-5.838zm0 4.792h5.838v2.396h-5.838zm0 4.791h5.838v2.396h-5.838zm0 4.791h5.838v2.396h-5.838zm0 4.792h5.838v2.396h-5.838zm0 4.791h5.838v2.395h-5.838zm0 4.692h5.838v2.395h-5.838zm0 4.791h5.838v2.396h-5.838zm0 4.792h5.838v2.396h-5.838zm0 4.791h5.838v2.396h-5.838zm0 4.792h5.838v2.396h-5.838zm0 4.791h5.838v2.396h-5.838zm0 4.791h5.838v2.396h-5.838zm-17.518-81.254h5.839v2.396h-5.839zm0 4.791h5.839v2.396h-5.839zm0 4.792h5.839v2.396h-5.839zm0 4.691h5.839v2.396h-5.839zm0 4.792h5.839v2.396h-5.839zm0 4.791h5.839v2.396h-5.839zm0 4.792h5.839v2.396h-5.839zm0 4.791h5.839v2.396h-5.839zm0 4.791h5.839v2.396h-5.839zm0 4.792h5.839v2.396h-5.839zm0 4.791h5.839v2.395h-5.839zm0 4.692h5.839v2.395h-5.839zm0 4.791h5.839v2.396h-5.839zm0 4.792h5.839v2.396h-5.839zm0 4.791h5.839v2.396h-5.839zm0 4.792h5.839v2.396h-5.839zm0 4.791h5.839v2.396h-5.839zm0 4.791h5.839v2.396h-5.839z"/><path class="cls-6" d="M310.602 17.116h40.23v2.986h-40.23z"/><path class="cls-24" d="M316.444 12.853h3.613v4.264h-3.613z"/><path class="cls-25" d="M354.566 20.027h1.444v102.796h-1.444zm-49.143 0h1.445v102.796h-1.445z"/><path class="cls-26" d="M315.279 129.455h2.833v6.294h-2.833zm9.348 0h2.832v6.294h-2.832zm9.348 0h2.833v6.294h-2.833zm9.346 0h2.833v6.294h-2.833zm-37.537 0l2.981 2.981v-2.981h-2.981z"/><path class="cls-27" d="M305.784 129.455v-1.686h49.865l4.82 4.818v-9.764h-59.503v12.926h7.799v-3.313l-2.981-2.981z"/><path class="cls-26" d="M355.649 127.769v1.686h-2.979v6.294h7.799v-3.162l-4.82-4.818z"/><path class="cls-28" d="M312.448 129.455h2.831v6.294h-2.831zm-3.683 2.981l2.833 2.833v-5.814h-2.833v2.981z"/><path class="cls-3" d="M308.765 132.436v3.313h2.833v-.48l-2.833-2.833z"/><path class="cls-29" d="M311.598 129.455v5.814l.48.48h.37v-6.294h-.85z"/><path class="cls-4" d="M311.598 135.749h.48l-.48-.48v.48z"/><path class="cls-28" d="M318.112 129.455h2.833v6.294h-2.833zm3.683 0h2.832v6.294h-2.832z"/><path class="cls-29" d="M320.945 129.455h.85v6.294h-.85z"/><path class="cls-28" d="M327.459 129.455h2.834v6.294h-2.834zm3.683 0h2.833v6.294h-2.833z"/><path class="cls-29" d="M330.293 129.455h.849v6.294h-.849z"/><path class="cls-28" d="M340.488 129.455h2.833v6.294h-2.833zm-3.68 0h2.833v6.294h-2.833z"/><path class="cls-29" d="M339.641 129.455h.848v6.294h-.848z"/><path class="cls-28" d="M349.836 129.455h2.834v6.294h-2.834zm-3.682 0h2.833v6.294h-2.833z"/><path class="cls-29" d="M348.987 129.455h.849v6.294h-.849z"/><path class="cls-30" d="M305.784 127.769v1.686h24.933v-1.686h-24.933z"/><path class="cls-7" d="M330.717 127.769v1.686h24.932v-1.686h-24.932z"/><path class="cls-31" d="M304.699 264.015h40.535v76.777h-40.535zm0 86.339h40.535v33.396h-40.535z"/><path class="cls-32" d="M304.699 268.293h40.535v1.581h-40.535zm0 66.64h40.535v1.581h-40.535zm0 42.891h40.535v1.582h-40.535z"/><path class="cls-33" d="M307.107 269.874h2.409v65.059h-2.409zm4.819 0h2.407v65.059h-2.407zm4.667 0h2.408v65.059h-2.408zm4.816 0h2.409v65.059h-2.409zm4.819 0h2.408v65.059h-2.408zm4.816 0h2.409v65.059h-2.409zm4.668 0h2.408v65.059h-2.408zm4.816 0h2.41v65.059h-2.41zm-33.421 82.837h2.409v25.091h-2.409zm4.819 0h2.407v25.091h-2.407zm4.667 0h2.408v25.091h-2.408zm4.816 0h2.409v25.091h-2.409zm4.819 0h2.408v25.091h-2.408zm4.816 0h2.409v25.091h-2.409zm4.668 0h2.408v25.091h-2.408zm4.816 0h2.41v25.091h-2.41z"/><path class="cls-34" d="M318.819 379.406h4.498v4.344h-4.498z"/><path class="cls-35" d="M320.775 379.406h.586v4.344h-.586z"/><path class="cls-34" d="M326.47 379.406h4.496v4.344h-4.496z"/><path class="cls-35" d="M328.425 379.406h.586v4.344h-.586z"/><path class="cls-34" d="M345.234 350.354v-9.562h-29.058l9.56 9.562h19.498z"/><path class="cls-33" d="M316.176 340.792v9.562h9.56l-9.56-9.562zm36.083-76.777h-7.025V383.75h7.025V264.015z"/><path class="cls-34" d="M352.259 350.308h15.529v33.442h-15.529z"/><path class="cls-31" d="M189.883 152.847h17.688v22.425h-17.688z"/><path class="cls-36" d="M207.571 152.847h18.206v22.425h-18.206z"/><path class="cls-22" d="M222.004 175.272v-8.979h-4.105v-6.723h-4.094v-6.723h-4.116v-6.724h-3.715v6.724h-4.118v6.723h-4.093v6.723h-4.106v8.979h-3.774v80.291h35.894v-80.291h-3.773z"/><path class="cls-31" d="M195.631 178.073h1.837v64.751h-1.837zm3.674 0h1.837v64.751h-1.837zm3.673 0h1.837v64.751h-1.837zm3.674 0h1.837v64.751h-1.837zm3.674 0h1.836v64.751h-1.836zm3.673 0h1.837v64.751h-1.837zm3.673 0h1.838v64.751h-1.838zm-22.041-8.784h1.837v5.872h-1.837zm3.674 0h1.837v5.872h-1.837zm3.673 0h1.837v5.872h-1.837zm3.674 0h1.837v5.872h-1.837zm3.674 0h1.836v5.872h-1.836zm3.673 0h1.837v5.872h-1.837zm3.673 0h1.838v5.872h-1.838z"/><path class="cls-37" d="M225.777 146.123h3.896v109.441h-3.896z"/><path class="cls-38" d="M185.988 146.123h3.895v109.441h-3.895z"/><path class="cls-33" d="M185.988 242.823h43.684v12.74h-43.684z"/><path class="cls-22" d="M225.777 248.363h-35.894v2.98l4.221 4.22h27.454l4.219-4.22v-2.98z"/><path class="cls-39" d="M189.883 251.343h4.22v4.221h-4.22zm6.331 0h4.22v4.221h-4.22zm6.353 0h4.219v4.221h-4.219zm6.33 0h4.22v4.221h-4.22zm6.33 0h4.22v4.221h-4.22zm6.331 0h4.22v4.221h-4.22z"/><path class="cls-38" d="M189.883 175.16h35.894v2.913h-35.894z"/><path class="cls-40" d="M338.565 153.839h7.248v3.937h-7.248z"/><path class="cls-17" d="M342.229 147.66h-.078l-.458 6.179h.993l-.457-6.179z"/><path class="cls-40" d="M312.025 153.839h7.248v3.937h-7.248z"/><path class="cls-17" d="M315.688 147.66h-.078l-.458 6.179h.994l-.458-6.179z"/><path class="cls-2" d="M303.348 157.775h51.146v97.788h-51.146z"/><path class="cls-5" d="M305.697 165.362h5.838v2.395h-5.838zm6.81 0h5.839v2.395h-5.839zm6.726 0h5.838v2.395h-5.838zm6.809 0h5.84v2.395h-5.84zm6.726 0h5.84v2.395h-5.84zm6.81 0h5.839v2.395h-5.839zm6.726 0h5.839v2.395h-5.839zm-40.607 3.593h5.838v2.396h-5.838zm6.81 0h5.839v2.396h-5.839zm6.726 0h5.838v2.396h-5.838zm6.809 0h5.84v2.396h-5.84zm6.726 0h5.84v2.396h-5.84zm6.81 0h5.839v2.396h-5.839zm6.726 0h5.839v2.396h-5.839zm-40.607 3.593h5.838v2.396h-5.838zm6.81 0h5.839v2.396h-5.839zm6.726 0h5.838v2.396h-5.838zm6.809 0h5.84v2.396h-5.84zm6.726 0h5.84v2.396h-5.84zm6.81 0h5.839v2.396h-5.839zm6.726 0h5.839v2.396h-5.839zm-40.607 3.593h5.838v2.396h-5.838zm6.81 0h5.839v2.396h-5.839zm6.726 0h5.838v2.396h-5.838zm6.809 0h5.84v2.396h-5.84zm6.726 0h5.84v2.396h-5.84zm6.81 0h5.839v2.396h-5.839zm6.726 0h5.839v2.396h-5.839zm-40.607 3.593h5.838v2.395h-5.838zm6.81 0h5.839v2.395h-5.839zm6.726 0h5.838v2.395h-5.838zm6.809 0h5.84v2.395h-5.84zm6.726 0h5.84v2.395h-5.84zm6.81 0h5.839v2.395h-5.839zm6.726 0h5.839v2.395h-5.839zm-40.607 3.593h5.838v2.395h-5.838zm6.81 0h5.839v2.395h-5.839zm6.726 0h5.838v2.395h-5.838zm6.809 0h5.84v2.395h-5.84zm6.726 0h5.84v2.395h-5.84zm6.81 0h5.839v2.395h-5.839zm6.726 0h5.839v2.395h-5.839zm-40.607 3.593h5.838v2.395h-5.838zm6.81 0h5.839v2.395h-5.839zm6.726 0h5.838v2.395h-5.838zm6.809 0h5.84v2.395h-5.84zm6.726 0h5.84v2.395h-5.84zm6.81 0h5.839v2.395h-5.839zm6.726 0h5.839v2.395h-5.839zm-40.607 3.593h5.838v2.395h-5.838zm6.81 0h5.839v2.395h-5.839zm6.726 0h5.838v2.395h-5.838zm6.809 0h5.84v2.395h-5.84zm6.726 0h5.84v2.395h-5.84zm6.81 0h5.839v2.395h-5.839zm6.726 0h5.839v2.395h-5.839zm-40.607 3.594h5.838v2.396h-5.838zm6.81 0h5.839v2.396h-5.839zm6.726 0h5.838v2.396h-5.838zm6.809 0h5.84v2.396h-5.84zm6.726 0h5.84v2.396h-5.84zm6.81 0h5.839v2.396h-5.839zm6.726 0h5.839v2.396h-5.839zm-40.607 3.592h5.838v2.396h-5.838zm6.81 0h5.839v2.396h-5.839zm6.726 0h5.838v2.396h-5.838zm6.809 0h5.84v2.396h-5.84zm6.726 0h5.84v2.396h-5.84zm6.81 0h5.839v2.396h-5.839zm6.726 0h5.839v2.396h-5.839zm-40.607 3.593h5.838v2.395h-5.838zm6.81 0h5.839v2.395h-5.839zm6.726 0h5.838v2.395h-5.838zm6.809 0h5.84v2.395h-5.84zm6.726 0h5.84v2.395h-5.84zm6.81 0h5.839v2.395h-5.839zm6.726 0h5.839v2.395h-5.839zm-40.607 3.593h5.838v2.395h-5.838zm6.81 0h5.839v2.395h-5.839zm6.726 0h5.838v2.395h-5.838zm6.809 0h5.84v2.395h-5.84zm6.726 0h5.84v2.395h-5.84zm6.81 0h5.839v2.395h-5.839zm6.726 0h5.839v2.395h-5.839zm-40.607 3.593h5.838v2.396h-5.838zm6.81 0h5.839v2.396h-5.839zm6.726 0h5.838v2.396h-5.838zm6.809 0h5.84v2.396h-5.84zm6.726 0h5.84v2.396h-5.84zm6.81 0h5.839v2.396h-5.839zm6.726 0h5.839v2.396h-5.839zm-40.607 3.593h5.838v2.396h-5.838zm6.81 0h5.839v2.396h-5.839zm6.726 0h5.838v2.396h-5.838zm6.809 0h5.84v2.396h-5.84zm6.726 0h5.84v2.396h-5.84zm6.81 0h5.839v2.396h-5.839zm6.726 0h5.839v2.396h-5.839zm-40.607 3.593h5.838v2.396h-5.838zm6.81 0h5.839v2.396h-5.839zm6.726 0h5.838v2.396h-5.838zm6.809 0h5.84v2.396h-5.84zm6.726 0h5.84v2.396h-5.84zm6.81 0h5.839v2.396h-5.839zm6.726 0h5.839v2.396h-5.839zm-40.607 3.593h5.838v2.396h-5.838zm6.81 0h5.839v2.396h-5.839zm6.726 0h5.838v2.396h-5.838zm6.809 0h5.84v2.396h-5.84zm6.726 0h5.84v2.396h-5.84zm6.81 0h5.839v2.396h-5.839zm6.726 0h5.839v2.396h-5.839zm-40.607 3.593h5.838v2.396h-5.838zm6.81 0h5.839v2.396h-5.839zm6.726 0h5.838v2.396h-5.838zm6.809 0h5.84v2.396h-5.84zm6.726 0h5.84v2.396h-5.84zm6.81 0h5.839v2.396h-5.839zm6.726 0h5.839v2.396h-5.839zm-40.607 3.593h5.838v2.396h-5.838zm6.81 0h5.839v2.396h-5.839zm6.726 0h5.838v2.396h-5.838zm6.809 0h5.84v2.396h-5.84zm6.726 0h5.84v2.396h-5.84zm6.81 0h5.839v2.396h-5.839zm6.726 0h5.839v2.396h-5.839zm-40.607 3.592h5.838v2.397h-5.838zm6.81 0h5.839v2.397h-5.839zm6.726 0h5.838v2.397h-5.838zm6.809 0h5.84v2.397h-5.84zm6.726 0h5.84v2.397h-5.84zm6.81 0h5.839v2.397h-5.839zm6.726 0h5.839v2.397h-5.839zm-40.607 3.593h5.838v2.396h-5.838zm6.81 0h5.839v2.396h-5.839zm6.726 0h5.838v2.396h-5.838zm6.809 0h5.84v2.396h-5.84zm6.726 0h5.84v2.396h-5.84zm6.81 0h5.839v2.396h-5.839zm6.726 0h5.839v2.396h-5.839zm-40.607 3.595h5.838v2.394h-5.838zm6.81 0h5.839v2.394h-5.839zm6.726 0h5.838v2.394h-5.838zm6.809 0h5.84v2.394h-5.84zm6.726 0h5.84v2.394h-5.84zm6.81 0h5.839v2.394h-5.839zm6.726 0h5.839v2.394h-5.839zm-40.607 3.592h5.838v2.394h-5.838zm6.81 0h5.839v2.394h-5.839zm6.726 0h5.838v2.394h-5.838zm6.809 0h5.84v2.394h-5.84zm6.726 0h5.84v2.394h-5.84zm6.81 0h5.839v2.394h-5.839zm6.726 0h5.839v2.394h-5.839z"/><path class="cls-6" d="M305.697 157.775h2.212v4.756h-2.212zm4.423 0h2.213v4.756h-2.213zm4.423 0h2.213v4.756h-2.213zm4.425 0h2.211v4.756h-2.211zm4.423 0h2.212v4.756h-2.212zm4.424 0h2.21v4.756h-2.21zm4.421 0h2.213v4.756h-2.213zm4.424 0h2.213v4.756h-2.213zm4.424 0h2.211v4.756h-2.211zm4.424 0h2.211v4.756h-2.211zm4.423 0h2.212v4.756h-2.212zm4.562 7.587v35.137h6.577v-28.56l-6.577-6.577zm0 42.711v35.137h6.577v-28.56l-6.577-6.577z"/><path class="cls-15" d="M303.348 165.362v35.137h-6.578v-28.56l6.578-6.577zm0 42.711v35.137h-6.578v-28.56l6.578-6.577z"/><path class="cls-9" d="M352.143 246.959h-6.726l6.726 6.727v-6.727zm-39.636 3.99v-3.99h-6.81v8.604h6.81v-4.614z"/><path class="cls-41" d="M345.417 246.959v8.604h6.726v-1.877l-6.726-6.727z"/><path class="cls-42" d="M334.633 249.014h-22.126l.328.328h32.582v-.328h-10.784z"/><path class="cls-43" d="M312.507 249.014v.328h.328l-.328-.328z"/><path class="cls-44" d="M326.404 249.342h2.393v1.607h-2.393zm2.722 0h2.393v1.607h-2.393zm-5.442 1.607h2.392v-1.607h-2.392v1.607z"/><path class="cls-45" d="M312.507 249.342v1.607h1.936l-1.608-1.607h-.328z"/><path class="cls-44" d="M322.557 249.342h-1.595v1.607h2.394v-1.607h-.799zm-4.297 0h2.374v1.607h-2.374zm-2.721 0h2.393v1.607h-2.393zm-2.704 0l1.608 1.607h.768v-1.607h-2.376z"/><path class="cls-45" d="M314.772 251.278h-2.265v4.285h2.704v-3.846l-.439-.439zm3.488 4.285h.796l-.796-.797v.797zm-2.721-3.518v3.518h2.393v-1.126l-2.393-2.392z"/><path class="cls-44" d="M318.26 251.278v3.488l.796.797h1.578v-4.285h-2.374zm7.816 0h-2.392v4.285h2.392v-4.285zm-10.865 0h-.439l.439.439v-.439zm2.721 3.159v-3.159h-2.393v.767l2.393 2.392zm3.03-3.159h2.394v4.285h-2.394zm13.641 0h2.392v4.285h-2.392zm-2.755 0h2.426v4.285h-2.426zm8.177 0h2.393v4.285h-2.393zm-2.703 0h2.375v4.285h-2.375zm5.424 0h2.671v4.285h-2.671zm-16.342 0v4.286h2.393v-4.286zm1.902 2.222h-.329v-.786h.329zm.82-2.222v4.286h2.393v-4.286zm.802 2.222h-.328v-.786h.328zm7.394-4.158h2.375v1.607h-2.375zm-2.689 0h-.03v1.607h2.391v-1.607h-2.361zm-2.785 0h2.426v1.607h-2.426zm10.898 0v1.607h2.671v-1.607h-2.671zm-2.721 0h2.393v1.607h-2.393z"/><path class="cls-43" d="M329.6 252.714h.328v.786h-.328zm-1.622 0h.328v.786h-.328z"/><path class="cls-1" d="M312.507 251.278h2.265l-.329-.329h-1.936v.329zm2.704.439v3.846h.328v-3.518l-.328-.328zm2.721 2.72v1.126h.328v-.797l-.328-.329z"/><path class="cls-43" d="M342.746 250.949v-1.607h-.328v1.607h-2.393v-1.607h-.328v1.607h-2.375v-1.607h-.328v1.607h-2.391v-1.607h-.33v1.607h-2.425v-1.607h-.329v1.607h-2.393v-1.607h-.329v1.607h-2.393v-1.607h-.328v1.607h-2.392v-1.607h-.328v1.607h-2.394v-1.607h-.328v1.607h-2.374v-1.607h-.328v1.607h-2.393v-1.607h-.328v1.607h-.768l.329.329h.439v.439l.328.328v-.767h2.393v3.159l.328.329v-3.488h2.374v4.285h.328v-4.285h2.394v4.285h.328v-4.285h2.392v4.285h.328v-4.285h2.393v4.285h.329v-4.285h2.393v4.285h.329v-4.285h2.425v4.285h.33v-4.285h2.391v4.285h.328v-4.285h2.375v4.285h.328v-4.285h2.393v4.285h.328v-4.285h2.671v-.329h-2.671z"/><path class="cls-46" d="M312.507 246.959h16.465v2.055h-16.465z"/><path class="cls-47" d="M328.972 246.959v2.055h16.445v-2.055h-16.445z"/><path class="cls-9" d="M359.866 170.735l1.204 1.204v28.56h-1.204v-29.764zm0 42.711l1.204 1.204v28.56h-1.204v-29.764z"/><path class="cls-5" d="M298.001 170.735l-1.204 1.204v28.56h1.204v-29.764zm0 42.711l-1.204 1.204v28.56h1.204v-29.764z"/><path class="cls-20" d="M78.436 232.257v-65.575h-25.34v88.881h68.167v-23.306H78.436z"/><path class="cls-48" d="M53.096 183.546h10.739v2.866H53.096zm14.6 0h10.739v2.866H67.696zm-14.6 5.73h10.739v2.865H53.096zm14.6 0h10.739v2.865H67.696zm-14.6 5.731h10.739v2.866H53.096zm14.6 0h10.739v2.866H67.696zm-14.6 5.731h10.739v2.865H53.096zm14.6 0h10.739v2.865H67.696zm-14.6 5.732h10.739v2.864H53.096zm14.6 0h10.739v2.864H67.696zm-14.6 5.729h10.739v2.865H53.096zm14.6 0h10.739v2.865H67.696zm-14.6 5.732h10.739v2.865H53.096zm14.6 0h10.739v2.865H67.696zm-14.6 5.73h10.739v2.864H53.096zm14.6 0h10.739v2.864H67.696zm-14.6 5.73h10.739v2.866H53.096zm14.6 0h10.739v2.866H67.696zm-14.6 23.306h68.167v2.866H53.096z"/><path class="cls-49" d="M50.072 232.257h74.217v7.906H50.072z"/><path class="cls-16" d="M78.436 229.391v2.866h42.827l-24.585-2.866H78.436z"/><path class="cls-50" d="M59.536 242.578l-3.932 3.932h3.932v-3.932z"/><path class="cls-51" d="M55.604 242.578v3.932l3.932-3.932h-3.932z"/><path class="cls-49" d="M54.867 247.247h5.406v-5.406h-5.406zm.737-4.669h3.932v3.932h-3.932z"/><path class="cls-50" d="M67.937 242.578l-3.933 3.932h3.933v-3.932z"/><path class="cls-51" d="M64.004 242.578v3.932l3.933-3.932h-3.933z"/><path class="cls-49" d="M63.268 247.247h5.406v-5.406h-5.406zm.736-4.669h3.933v3.932h-3.933z"/><path class="cls-50" d="M76.337 242.578l-3.932 3.932h3.932v-3.932z"/><path class="cls-51" d="M72.405 242.578v3.932l3.932-3.932h-3.932z"/><path class="cls-49" d="M71.668 247.247h5.407v-5.406h-5.407zm.737-4.669h3.932v3.932h-3.932z"/><path class="cls-50" d="M84.738 242.578l-3.932 3.932h3.932v-3.932z"/><path class="cls-51" d="M80.806 242.578v3.932l3.932-3.932h-3.932z"/><path class="cls-49" d="M80.069 247.247h5.407v-5.406h-5.407zm.737-4.669h3.932v3.932h-3.932z"/><path class="cls-50" d="M93.139 242.578l-3.932 3.932h3.932v-3.932z"/><path class="cls-51" d="M89.207 242.578v3.932l3.932-3.932h-3.932z"/><path class="cls-49" d="M88.47 247.247h5.406v-5.406h-5.407zm.737-4.669h3.932v3.932h-3.932z"/><path class="cls-50" d="M101.54 242.578l-3.933 3.932h3.933v-3.932z"/><path class="cls-51" d="M97.607 242.578v3.932l3.933-3.932h-3.933z"/><path class="cls-49" d="M96.87 247.247h5.406v-5.406H96.87zm.737-4.669h3.933v3.932h-3.933z"/><path class="cls-50" d="M109.94 242.578l-3.932 3.932h3.932v-3.932z"/><path class="cls-51" d="M106.008 242.578v3.932l3.932-3.932h-3.932z"/><path class="cls-49" d="M105.27 247.247h5.407v-5.406h-5.407zm.738-4.669h3.932v3.932h-3.932z"/><path class="cls-51" d="M114.409 246.51l3.931-3.932h-3.931v3.932z"/><path class="cls-50" d="M118.34 246.51v-3.932l-3.931 3.932h3.931z"/><path class="cls-49" d="M113.671 241.84v5.407h5.407v-5.406zm4.67 4.67h-3.932v-3.932h3.931z"/><path class="cls-50" d="M59.414 176.748l-3.933 3.932h3.933v-3.932z"/><path class="cls-51" d="M55.481 176.748v3.932l3.933-3.932h-3.933z"/><path class="cls-49" d="M54.744 181.417h5.406v-5.407h-5.406zm.737-4.669h3.933v3.932H55.48z"/><path class="cls-50" d="M67.814 176.748l-3.933 3.932h3.933v-3.932z"/><path class="cls-51" d="M63.881 176.748v3.932l3.933-3.932h-3.933z"/><path class="cls-49" d="M63.145 181.417h5.406v-5.407h-5.406zm.736-4.669h3.933v3.932h-3.933z"/><path class="cls-51" d="M72.283 176.748v3.932l3.931-3.932h-3.931z"/><path class="cls-50" d="M76.214 176.748l-3.931 3.932h3.931v-3.932z"/><path class="cls-49" d="M71.545 181.417h5.407v-5.407h-5.407zm.738-4.669h3.931v3.932h-3.931z"/><path class="cls-51" d="M55.481 169.559v3.932l3.933-3.932h-3.933z"/><path class="cls-50" d="M59.414 169.559l-3.933 3.932h3.933v-3.932z"/><path class="cls-49" d="M54.744 174.229h5.406v-5.407h-5.406zm.737-4.67h3.933v3.932H55.48z"/><path class="cls-51" d="M63.881 169.559v3.932l3.933-3.932h-3.933z"/><path class="cls-50" d="M67.814 169.559l-3.933 3.932h3.933v-3.932z"/><path class="cls-49" d="M63.145 174.229h5.406v-5.407h-5.406zm.736-4.67h3.933v3.932h-3.933z"/><path class="cls-50" d="M76.214 173.491v-3.932l-3.931 3.932h3.931z"/><path class="cls-51" d="M72.283 173.491l3.931-3.932h-3.931v3.932z"/><path class="cls-49" d="M71.545 168.822v5.407h5.407v-5.407zm4.67 4.67h-3.932v-3.933h3.931zm4.389 50.169h4.336v5.729h-4.336z"/><path class="cls-52" d="M82.772 222.171h4.336v1.489h-4.336z"/><path class="cls-53" d="M84.94 223.661h4.337v5.729H84.94z"/><path class="cls-49" d="M61.512 164.41h4.336v2.272h-4.336z"/><path class="cls-52" d="M63.679 162.92h4.336v1.49h-4.336z"/><path class="cls-53" d="M65.848 164.41h4.336v2.272h-4.336z"/><path class="cls-37" d="M185.492 380.663h30.189v3.087h-30.189z"/><path class="cls-22" d="M185.492 305.503h30.189v4.17h-30.189z"/><path class="cls-5" d="M194.752 318.933h20.929v-3.087h-24.016l3.087 3.087z"/><path class="cls-9" d="M191.665 315.846h-6.173v3.087h9.26l-3.087-3.087z"/><path class="cls-5" d="M200.925 325.106h14.756v-3.086h-17.843l3.087 3.086z"/><path class="cls-9" d="M197.838 322.02h-12.346v3.086h15.433l-3.087-3.086zm6.173 6.171h-18.519v3.087h21.606l-3.087-3.087z"/><path class="cls-5" d="M207.098 331.278h8.583v-3.087h-11.67l3.087 3.087z"/><path class="cls-9" d="M210.185 334.365h-24.693v3.086h27.779l-3.086-3.086z"/><path class="cls-5" d="M213.271 337.451h2.41v-3.086h-5.496l3.086 3.086z"/><path class="cls-9" d="M185.492 340.538h30.189v3.087h-30.189zm0 6.174h30.189v3.086h-30.189zm0 6.173h30.189v3.087h-30.189zm0 6.173h30.189v3.087h-30.189zm0 6.173h30.189v3.086h-30.189zm0 6.172h30.189v3.087h-30.189zm0 6.174h30.189v3.086h-30.189z"/><path class="cls-54" d="M194.752 318.933h-9.26v3.087h12.346l-3.086-3.087z"/><path class="cls-55" d="M197.838 322.02h17.843v-3.087h-20.929l3.086 3.087z"/><path class="cls-9" d="M185.492 309.673v3.087h3.086l-3.086-3.087z"/><path class="cls-5" d="M215.681 312.76v-3.087h-30.189l3.086 3.087h27.103z"/><path class="cls-54" d="M188.578 312.76h-3.086v3.086h6.173l-3.087-3.086z"/><path class="cls-55" d="M191.665 315.846h24.016v-3.086h-27.103l3.087 3.086z"/><path class="cls-54" d="M200.925 325.106h-15.433v3.085h18.519l-3.086-3.085z"/><path class="cls-55" d="M204.011 328.191h11.67v-3.085h-14.756l3.086 3.085zm6.174 6.174h5.496v-3.087h-8.583l3.087 3.087z"/><path class="cls-54" d="M207.098 331.278h-21.606v3.087h24.693l-3.087-3.087zm6.173 6.173h-27.779v3.087h30.189v-.677l-2.41-2.41z"/><path class="cls-55" d="M215.681 339.861v-2.41h-2.41l2.41 2.41z"/><path class="cls-54" d="M185.492 343.625h30.189v3.087h-30.189zm0 6.173h30.189v3.087h-30.189zm0 6.174h30.189v3.086h-30.189zm0 6.173h30.189v3.086h-30.189zm0 6.171h30.189v3.087h-30.189zm0 6.174h30.189v3.087h-30.189z"/><path class="cls-22" d="M167.686 312.76h17.806v70.99h-17.806z"/><path class="cls-5" d="M169.348 315.846h16.144v3.087h-16.144zm0 6.174h16.144v3.087h-16.144zm0 6.171h16.144v3.087h-16.144zm0 6.174h16.144v3.086h-16.144zm0 6.173h16.144v3.087h-16.144zm0 6.174h16.144v3.086h-16.144zm0 6.173h16.144v3.087h-16.144zm0 6.173h16.144v3.087h-16.144zm0 6.173h16.144v3.086h-16.144zm0 6.172h16.144v3.087h-16.144zm0 6.174h16.144v3.086h-16.144z"/><path class="cls-55" d="M169.348 318.933h16.144v3.087h-16.144zm0 6.173h16.144v3.085h-16.144zm0 6.172h16.144v3.087h-16.144zm0 6.173h16.144v3.087h-16.144zm0 6.174h16.144v3.087h-16.144zm0 6.173h16.144v3.087h-16.144zm0 6.174h16.144v3.086h-16.144zm0 6.173h16.144v3.086h-16.144zm0 6.171h16.144v3.087h-16.144zm0 6.174h16.144v3.087h-16.144z"/><path class="cls-22" d="M237.616 343.625h16.144v40.125h-16.144z"/><path class="cls-5" d="M237.616 346.712h16.144v3.086h-16.144zm0 6.173h16.144v3.087h-16.144zm0 6.173h16.144v3.087h-16.144zm0 6.173h16.144v3.086h-16.144zm0 6.172h16.144v3.087h-16.144zm0 6.174h16.144v3.086h-16.144z"/><path class="cls-55" d="M237.616 349.798h16.144v3.087h-16.144zm0 6.174h16.144v3.086h-16.144zm0 6.173h16.144v3.086h-16.144zm0 6.171h16.144v3.087h-16.144zm0 6.174h16.144v3.087h-16.144z"/><path class="cls-22" d="M215.681 331.278h21.935v52.472h-21.935z"/><path class="cls-5" d="M215.681 334.365h21.935v3.086h-21.935zm0 6.173h21.935v3.087h-21.935zm0 6.174h21.935v3.086h-21.935zm0 6.173h21.935v3.087h-21.935zm0 6.173h21.935v3.087h-21.935zm0 6.173h21.935v3.086h-21.935zm0 6.172h21.935v3.087h-21.935zm0 6.174h21.935v3.086h-21.935z"/><path class="cls-55" d="M215.681 337.451h21.935v3.087h-21.935zm0 6.174h21.935v3.087h-21.935zm0 6.173h21.935v3.087h-21.935zm0 6.174h21.935v3.086h-21.935zm0 6.173h21.935v3.086h-21.935zm0 6.171h21.935v3.087h-21.935zm0 6.174h21.935v3.087h-21.935z"/><path class="cls-38" d="M165.901 309.673h19.591v6.173h-19.591zm71.713 30.865h18.972v6.174h-18.972zm-21.933-12.347h24.959v6.174h-24.959zM182.767 303.5h35.679v6.173h-35.679zm32.914 30.865h1.663v46.298h-1.663zm-47.995-18.519h1.662v64.817h-1.662zm69.93 30.866h1.662v33.951h-1.662z"/><path class="cls-38" d="M187.154 309.673h-1.662l1.662 1.662v-1.662z"/><path class="cls-56" d="M185.492 309.673v70.99h1.662v-69.328l-1.662-1.662z"/><path class="cls-57" d="M200.606 298.817h12.058v4.683h-12.058z"/><path class="cls-58" d="M188.549 298.817h12.058v4.683h-12.058z"/><path class="cls-57" d="M46.861 312.429h53.656v71.321H46.861z"/><path class="cls-59" d="M46.861 377.787h53.656v2.971H46.861zm0-5.941h53.656v2.971H46.861zm0-5.942h53.656v2.97H46.861zm0-5.941h53.656v2.97H46.861zm0-5.942h53.656v2.972H46.861zm0-5.942h53.656v2.971H46.861zm0-5.942h53.656v2.972H46.861zm0-5.942h53.656v2.971H46.861zm0-5.941h53.656v2.97H46.861zm0-5.941h53.656v2.97H46.861zm0-5.943h53.656v2.972H46.861zm0-5.941h53.656v2.971H46.861z"/><path class="cls-60" d="M50.45 303.626h46.477v80.124H50.45z"/><path class="cls-58" d="M62.036 312.429h23.306v71.321H62.036z"/><path class="cls-57" d="M62.036 377.787h23.306v5.963H62.036zm0-5.941h23.306v2.971H62.036zm0-5.942h23.306v2.97H62.036zm0-5.941h23.306v2.97H62.036zm0-5.942h23.306v2.972H62.036zm0-5.942h23.306v2.971H62.036zm0-5.942h23.306v2.972H62.036zm0-5.942h23.306v2.971H62.036zm0-5.941h23.306v2.97H62.036zm0-5.941h23.306v2.97H62.036zm0-5.943h23.306v2.972H62.036zm0-5.941h23.306v2.971H62.036z"/><path class="cls-61" d="M71.44 379.406h4.497v4.344H71.44z"/><path class="cls-58" d="M73.396 379.406h.586v4.344h-.586z"/><path class="cls-62" d="M85.342 312.429v71.321h11.586v-59.735l-11.586-11.586z"/><path class="cls-49" d="M56.749 299.772h9.138v3.853h-9.138z"/><path class="cls-63" d="M58.51 299.772h5.617v3.853H58.51z"/><path class="cls-64" d="M59.572 296.282h3.492v3.49h-3.492z"/><path class="cls-49" d="M69.12 299.772h9.138v3.853H69.12z"/><path class="cls-63" d="M70.881 299.772h5.616v3.853h-5.616z"/><path class="cls-64" d="M71.943 296.282h3.491v3.49h-3.491z"/><path class="cls-49" d="M81.491 299.772h9.138v3.853h-9.138z"/><path class="cls-63" d="M83.251 299.772h5.617v3.853h-5.617z"/><path class="cls-64" d="M84.314 296.282h3.491v3.49h-3.491z"/><g><path class="cls-57" d="M65.928 419.366h22.995v30.567H65.928z"/><path class="cls-59" d="M65.928 447.378h22.995v1.272H65.928zm0-2.547h22.995v1.272H65.928zm0-2.547h22.995v1.272H65.928zm0-2.546h22.995v1.274H65.928zm0-2.546h22.995v1.272H65.928zm0-2.547h22.995v1.272H65.928zm0-2.546h22.995v1.273H65.928zm0-2.547h22.995v1.273H65.928zm0-2.546h22.995v1.272H65.928zm0-2.547h22.995v1.274H65.928zm0-2.547h22.995v1.274H65.928zm0-2.546h22.995v1.272H65.928z"/><path class="cls-60" d="M67.466 415.594h19.919v34.339H67.466z"/><path class="cls-58" d="M72.432 419.366h9.988v30.567h-9.988z"/><path class="cls-57" d="M72.432 447.378h9.988v2.555h-9.988zm0-2.547h9.988v1.272h-9.988zm0-2.547h9.988v1.272h-9.988zm0-2.546h9.988v1.274h-9.988zm0-2.546h9.988v1.272h-9.988zm0-2.547h9.988v1.272h-9.988zm0-2.546h9.988v1.273h-9.988zm0-2.547h9.988v1.273h-9.988zm0-2.546h9.988v1.272h-9.988zm0-2.547h9.988v1.274h-9.988zm0-2.547h9.988v1.274h-9.988zm0-2.546h9.988v1.272h-9.988z"/><path class="cls-61" d="M76.462 448.071h1.928v1.861h-1.928z"/><path class="cls-58" d="M77.3 448.071h.251v1.861H77.3z"/><path class="cls-62" d="M82.42 419.366v30.567h4.965V424.33l-4.965-4.964z"/><path class="cls-49" d="M70.166 413.943h3.916v1.65h-3.916z"/><path class="cls-63" d="M70.92 413.943h2.407v1.65H70.92z"/><path class="cls-64" d="M71.376 412.445h1.496v1.498h-1.496z"/><path class="cls-49" d="M75.468 413.943h3.916v1.65h-3.916z"/><path class="cls-63" d="M76.222 413.943h2.407v1.65h-2.407z"/><path class="cls-64" d="M76.678 412.445h1.496v1.498h-1.496z"/><path class="cls-49" d="M80.77 413.943h3.916v1.65H80.77z"/><path class="cls-63" d="M81.523 413.943h2.407v1.65h-2.407z"/><path class="cls-64" d="M81.98 412.445h1.496v1.498H81.98z"/><path class="cls-51" d="M201.299 419.405h22.996v30.566h-22.996z"/><path class="cls-21" d="M201.299 447.417h22.996v1.272h-22.996zm0-2.547h22.996v1.272h-22.996zm0-2.547h22.996v1.272h-22.996zm0-2.546h22.996v1.273h-22.996zm0-2.546h22.996v1.272h-22.996zm0-2.547h22.996v1.272h-22.996zm0-2.546h22.996v1.274h-22.996zm0-2.547h22.996v1.273h-22.996zm0-2.546h22.996v1.272h-22.996zm0-2.547h22.996v1.274h-22.996zm0-2.547h22.996v1.273h-22.996zm0-2.546h22.996v1.272h-22.996z"/><path class="cls-20" d="M202.837 415.633h19.918v34.339h-19.918z"/><path class="cls-48" d="M207.803 419.405h9.988v30.566h-9.988z"/><path class="cls-49" d="M207.803 447.417h9.988v2.555h-9.988zm0-2.547h9.988v1.272h-9.988zm0-2.547h9.988v1.272h-9.988zm0-2.546h9.988v1.273h-9.988zm0-2.546h9.988v1.272h-9.988zm0-2.547h9.988v1.272h-9.988zm0-2.546h9.988v1.274h-9.988zm0-2.547h9.988v1.273h-9.988zm0-2.546h9.988v1.272h-9.988zm0-2.547h9.988v1.274h-9.988zm0-2.547h9.988v1.273h-9.988zm0-2.546h9.988v1.272h-9.988z"/><path class="cls-51" d="M211.833 448.11h1.928v1.861h-1.928z"/><path class="cls-20" d="M212.672 448.11h.25v1.861h-.25z"/><path class="cls-21" d="M217.791 419.405v30.567h4.965v-25.603l-4.965-4.964z"/><path class="cls-49" d="M205.537 413.983h3.916v1.65h-3.916z"/><path class="cls-63" d="M206.291 413.983h2.408v1.65h-2.408z"/><path class="cls-64" d="M206.746 412.484h1.496v1.498h-1.496z"/><path class="cls-49" d="M210.839 413.983h3.916v1.65h-3.916z"/><path class="cls-63" d="M211.593 413.983H214v1.65h-2.407z"/><path class="cls-64" d="M212.049 412.484h1.496v1.498h-1.496z"/><path class="cls-49" d="M216.141 413.983h3.916v1.65h-3.916z"/><path class="cls-63" d="M216.894 413.983h2.407v1.65h-2.407z"/><path class="cls-64" d="M217.351 412.484h1.496v1.498h-1.496z"/><path class="cls-20" d="M69.39 439.175v-30.457H57.619V450h31.662v-10.825H69.39z"/><path class="cls-48" d="M57.619 416.55h4.988v1.332h-4.988zm6.781 0h4.989v1.332H64.4zm-6.781 2.662h4.988v1.332h-4.988zm6.781 0h4.989v1.332H64.4zm-6.781 2.661h4.988v1.331h-4.988zm6.781 0h4.989v1.331H64.4zm-6.781 2.663h4.988v1.33h-4.988zm6.781 0h4.989v1.33H64.4zm-6.781 2.661h4.988v1.331h-4.988zm6.781 0h4.989v1.331H64.4zm-6.781 2.661h4.988v1.331h-4.988zm6.781 0h4.989v1.331H64.4zm-6.781 2.663h4.988v1.331h-4.988zm6.781 0h4.989v1.331H64.4zm-6.781 2.662h4.988v1.331h-4.988zm6.781 0h4.989v1.331H64.4zm-6.781 2.66h4.988v1.332h-4.988zm6.781 0h4.989v1.332H64.4zm-6.781 10.827h31.662V450H57.619z"/><path class="cls-49" d="M56.214 439.175h34.472v3.672H56.214z"/><path class="cls-16" d="M69.39 437.843v1.332h19.891l-11.419-1.332H69.39z"/><path class="cls-50" d="M60.61 443.97l-1.826 1.825h1.826v-1.825z"/><path class="cls-51" d="M58.784 443.97v1.825l1.826-1.825h-1.826z"/><path class="cls-49" d="M58.442 446.138h2.51v-2.511h-2.51zm.342-2.168h1.826v1.825h-1.826z"/><path class="cls-50" d="M64.512 443.97l-1.826 1.825h1.826v-1.825z"/><path class="cls-51" d="M62.686 443.97v1.825l1.826-1.825h-1.826z"/><path class="cls-49" d="M62.343 446.138h2.512v-2.511h-2.512zm.343-2.168h1.826v1.825h-1.826z"/><path class="cls-50" d="M68.414 443.97l-1.827 1.825h1.827v-1.825z"/><path class="cls-51" d="M66.587 443.97v1.825l1.827-1.825h-1.827z"/><path class="cls-49" d="M66.245 446.138h2.511v-2.511h-2.51zm.342-2.168h1.827v1.825h-1.827z"/><path class="cls-50" d="M72.316 443.97l-1.827 1.825h1.827v-1.825z"/><path class="cls-51" d="M70.489 443.97v1.825l1.827-1.825h-1.827z"/><path class="cls-49" d="M70.147 446.138h2.512v-2.511h-2.512zm.342-2.168h1.827v1.825H70.49z"/><path class="cls-50" d="M76.218 443.97l-1.826 1.825h1.826v-1.825z"/><path class="cls-51" d="M74.392 443.97v1.825l1.826-1.825h-1.826z"/><path class="cls-49" d="M74.05 446.138h2.51v-2.511h-2.51zm.342-2.168h1.826v1.825h-1.826z"/><path class="cls-50" d="M80.12 443.97l-1.827 1.825h1.827v-1.825z"/><path class="cls-51" d="M78.293 443.97v1.825l1.827-1.825h-1.827z"/><path class="cls-49" d="M77.951 446.138h2.511v-2.511h-2.51zm.342-2.168h1.827v1.825h-1.827z"/><path class="cls-50" d="M84.022 443.97l-1.827 1.825h1.827v-1.825z"/><path class="cls-51" d="M82.195 443.97v1.825l1.827-1.825h-1.827z"/><path class="cls-49" d="M81.854 446.138h2.51v-2.511h-2.51zm.341-2.168h1.827v1.825h-1.827z"/><path class="cls-51" d="M86.097 445.795l1.826-1.825h-1.826v1.825z"/><path class="cls-50" d="M87.923 445.795v-1.825l-1.826 1.825h1.826z"/><path class="cls-49" d="M85.754 443.627v2.51h2.512v-2.51zm2.17 2.168h-1.827v-1.825h1.826z"/><path class="cls-50" d="M60.553 413.392l-1.826 1.827h1.826v-1.827z"/><path class="cls-51" d="M58.727 413.392v1.827l1.826-1.827h-1.826z"/><path class="cls-49" d="M58.384 415.562h2.512v-2.511h-2.512zm.343-2.17h1.826v1.827h-1.826z"/><path class="cls-50" d="M64.455 413.392l-1.826 1.827h1.826v-1.827z"/><path class="cls-51" d="M62.629 413.392v1.827l1.826-1.827h-1.826z"/><path class="cls-49" d="M62.287 415.562h2.51v-2.511h-2.51zm.342-2.17h1.826v1.827H62.63z"/><path class="cls-51" d="M66.531 413.392v1.827l1.826-1.827h-1.826z"/><path class="cls-50" d="M68.357 413.392l-1.826 1.827h1.826v-1.827z"/><path class="cls-49" d="M66.188 415.562H68.7v-2.511h-2.512zm.343-2.17h1.826v1.827H66.53z"/><path class="cls-51" d="M58.727 410.054v1.826l1.826-1.826h-1.826z"/><path class="cls-50" d="M60.553 410.054l-1.826 1.826h1.826v-1.826z"/><path class="cls-49" d="M58.384 412.223h2.512v-2.511h-2.512zm.343-2.17h1.826v1.827h-1.826z"/><path class="cls-51" d="M62.629 410.054v1.826l1.826-1.826h-1.826z"/><path class="cls-50" d="M64.455 410.054l-1.826 1.826h1.826v-1.826z"/><path class="cls-49" d="M62.287 412.223h2.51v-2.511h-2.51zm.342-2.17h1.826v1.827H62.63z"/><path class="cls-50" d="M68.357 411.88v-1.826l-1.826 1.826h1.826z"/><path class="cls-51" d="M66.531 411.88l1.826-1.826h-1.826v1.826z"/><path class="cls-49" d="M66.188 409.712v2.51H68.7v-2.51zm2.169 2.168H66.53v-1.826h1.826zm2.039 23.303h2.015v2.66h-2.015z"/><path class="cls-52" d="M71.403 434.488h2.014v.694h-2.014z"/><path class="cls-53" d="M72.41 435.183h2.014v2.66H72.41z"/><path class="cls-49" d="M61.528 407.662h2.014v1.056h-2.014z"/><path class="cls-52" d="M62.535 406.971h2.014v.691h-2.014z"/><path class="cls-53" d="M63.542 407.662h2.014v1.056h-2.014z"/><path class="cls-2" d="M112.943 408.556h17.19v41.416h-17.19z"/><path class="cls-3" d="M120.153 447.322h2.771V450h-2.771z"/><path class="cls-4" d="M121.359 447.322h.36V450h-.36z"/><path class="cls-5" d="M114.203 420.944h1.125v20.324h-1.125zm2.25 0h1.126v20.324h-1.126zm2.252 0h1.127v20.324h-1.127zm2.251 0h1.126v20.324h-1.126zm2.251 0h1.127v20.324h-1.127zm2.253 0h1.125v20.324h-1.125zm2.25 0h1.125v20.324h-1.125zm-13.507-10.253h1.125v4.59h-1.125zm2.25 0h1.126v4.59h-1.126zm2.252 0h1.127v4.59h-1.127zm2.251 0h1.126v4.59h-1.126zm2.251 0h1.127v4.59h-1.127zm2.253 0h1.125v4.59h-1.125zm2.25 0h1.125v4.59h-1.125z"/><path class="cls-6" d="M111.827 416.298h19.385v3.685h-19.385z"/><path class="cls-2" d="M118.161 404.329h3.377v4.227h-3.377z"/><path class="cls-6" d="M121.538 404.329h3.378v4.227h-3.378z"/><path class="cls-7" d="M120.61 403.512h1.857v.817h-1.857z"/><path class="cls-8" d="M130.133 419.982h-17.19l.962.962h16.228v-.962z"/><path class="cls-5" d="M114.203 442.508v3.484h5.573l3.485-3.484h-9.058z"/><path class="cls-9" d="M128.835 442.508h-5.574l-3.485 3.484h9.059v-3.484z"/><path class="cls-10" d="M111.827 416.298h19.385v1.033h-19.385z"/><path class="cls-2" d="M318.205 408.556h17.19v41.416h-17.19z"/><path class="cls-3" d="M325.415 447.322h2.771V450h-2.771z"/><path class="cls-4" d="M326.621 447.322h.36V450h-.36z"/><path class="cls-5" d="M319.465 420.944h1.125v20.324h-1.125zm2.25 0h1.126v20.324h-1.126zm2.252 0h1.127v20.324h-1.127zm2.251 0h1.126v20.324h-1.126zm2.251 0h1.127v20.324h-1.127zm2.253 0h1.125v20.324h-1.125zm2.251 0h1.125v20.324h-1.125zm-13.508-10.253h1.125v4.59h-1.125zm2.25 0h1.126v4.59h-1.126zm2.252 0h1.127v4.59h-1.127zm2.251 0h1.126v4.59h-1.126zm2.251 0h1.127v4.59h-1.127zm2.253 0h1.125v4.59h-1.125zm2.251 0h1.125v4.59h-1.125z"/><path class="cls-6" d="M317.089 416.298h19.385v3.685h-19.385z"/><path class="cls-2" d="M323.423 404.329h3.377v4.227h-3.377z"/><path class="cls-6" d="M326.8 404.329h3.378v4.227H326.8z"/><path class="cls-7" d="M325.872 403.512h1.857v.817h-1.857z"/><path class="cls-8" d="M335.396 419.982h-17.191l.962.962h16.229v-.962z"/><path class="cls-5" d="M319.465 442.508v3.484h5.573l3.485-3.484h-9.058z"/><path class="cls-9" d="M334.098 442.508h-5.575l-3.485 3.484h9.06v-3.484z"/><path class="cls-10" d="M317.089 416.298h19.385v1.033h-19.385z"/><path class="cls-11" d="M69.664 442.779h.683v1.48h-.683z"/><path class="cls-12" d="M70.005 442.779h.342v1.48h-.342z"/><path class="cls-13" d="M70.347 442.779h.341v1.48h-.341z"/><path class="cls-11" d="M71.711 442.779h.683v1.48h-.683z"/><path class="cls-12" d="M72.053 442.779h.341v1.48h-.341z"/><path class="cls-13" d="M72.394 442.779h.341v1.48h-.341z"/><path class="cls-11" d="M75.807 442.779h.682v1.48h-.682z"/><path class="cls-12" d="M76.148 442.779h.342v1.48h-.342z"/><path class="cls-13" d="M76.489 442.779h.341v1.48h-.341z"/><path class="cls-11" d="M77.855 442.779h.682v1.48h-.682z"/><path class="cls-12" d="M78.195 442.779h.342v1.48h-.342z"/><path class="cls-13" d="M78.537 442.779h.341v1.48h-.341z"/><path class="cls-2" d="M81.323 417.637h7.905v27.385h-7.905z"/><path class="cls-14" d="M81.902 419.177h.518v24.305h-.518zm1.035 0h.518v24.305h-.518zm1.035 0h.517v24.305h-.517zm1.036 0h.518v24.305h-.518zm1.035 0h.517v24.305h-.517zm1.035 0h.518v24.305h-.518zm1.035 0h.517v24.305h-.517z"/><path class="cls-2" d="M81.323 428.063h7.905v.789h-7.905zm9.497-25.977h4.719v5.073H90.82z"/><path class="cls-14" d="M91.398 402.766h.517v3.724h-.517zm1.036 0h.518v3.724h-.518zm1.034 0h.518v3.724h-.518zm1.035 0h.519v3.724h-.519z"/><path class="cls-2" d="M97.132 417.637h7.904v27.385h-7.904z"/><path class="cls-14" d="M97.711 419.177h.518v24.305h-.518zm1.035 0h.518v24.305h-.518zm1.035 0h.518v24.305h-.518zm1.035 0h.518v24.305h-.518zm1.036 0h.518v24.305h-.518zm1.034 0h.519v24.305h-.519zm1.036 0h.517v24.305h-.517z"/><path class="cls-2" d="M97.132 428.063h7.904v.789h-7.904z"/><path class="cls-15" d="M89.806 408.699h.517v10.034l.519.517v-10.551h.517v11.07l.518.516v-11.586h.518v12.105l.517.516v-12.621h.518v13.14l.517.517v-13.657h.518v14.175l.518.518v-14.693h.518v15.211l.517.518v-15.729h.517v16.245l.597.597v-18.382h-7.904v10.478l.578.578v-9.516z"/><path class="cls-6" d="M96.535 424.944v18.537h-.517v-19.053l-.517-.518v19.571h-.518v-20.089l-.518-.518v20.607h-.518v-21.125l-.517-.517v21.642h-.518V421.32l-.517-.516v22.677h-.518v-23.196l-.518-.516v23.712h-.517V419.25l-.519-.517v24.748h-.517v-25.266l-.578-.578v27.384h7.904v-19.48l-.597-.597z"/><path class="cls-16" d="M89.806 443.481h.517v-24.748l-.517-.518v25.266z"/><path class="cls-14" d="M89.806 408.699v9.516l.517.518v-10.034h-.517z"/><path class="cls-16" d="M90.842 443.481h.517v-23.712l-.517-.519v24.231z"/><path class="cls-14" d="M90.842 408.699v10.551l.517.519v-11.07h-.517z"/><path class="cls-16" d="M91.877 443.481h.518v-22.677l-.518-.519v23.196z"/><path class="cls-14" d="M91.877 408.699v11.586l.518.519v-12.105h-.518z"/><path class="cls-16" d="M92.912 443.481h.518v-21.642l-.518-.519v22.161z"/><path class="cls-14" d="M92.912 408.699v12.621l.518.519v-13.14h-.518zm1.035 0v13.657l.518.518v-14.175h-.518z"/><path class="cls-16" d="M93.947 443.481h.518v-20.607l-.518-.518v21.125zm1.036 0h.518V423.91l-.518-.518v20.089z"/><path class="cls-14" d="M94.983 408.699v14.693l.518.518v-15.211h-.518z"/><path class="cls-16" d="M96.018 443.481h.517v-18.537l-.517-.516v19.053z"/><path class="cls-14" d="M96.018 408.699v15.729l.517.516v-16.245h-.517z"/><path class="cls-6" d="M106.132 437.368h.518v3.21h-.518zm2.558-.79l-.486-.486v.486h.486z"/><path class="cls-15" d="M110.791 438.682v-1.314h-.517v.797l.517.517z"/><path class="cls-6" d="M107.167 437.368h.518v3.21h-.518zm1.037 0h.517v3.21h-.517zm-.519-.79v-1.003l-.518-.517v1.52h.518zm3.625 4h.517v-.862l-.517-.518v1.38z"/><path class="cls-15" d="M109.755 437.368h-.277l.277.277v-.277zm1.555 0v1.83l.517.518v-2.348h-.517z"/><path class="cls-6" d="M109.478 437.368h-.239v3.21h.516v-2.933l-.277-.277zm.796.797v2.413h.517v-1.896l-.517-.517zm-5.238-.797h.579v3.21h-.579zm7.309 3.21h.344l-.344-.345v.345z"/><path class="cls-15" d="M112.345 440.233l.344.345h.252v-3.21h-.596v2.865zm-5.695-5.765h.517v.59l.518.517v-1.107h.519v1.624l.486.486h.03v-2.11h.519v2.11h.516v-2.11h.519v2.11h.517v-2.11h.519v2.11h.517v-2.11h.518v2.11h.596v-3.652h-7.905l1.614 1.614v-.072z"/><path class="cls-6" d="M112.345 443.482h-.518v-2.115h-.517v2.115h-.519v-2.115h-.517v2.115h-.519v-2.115h-.516v2.115h-.519v-2.115h-.516v2.115h-.519v-2.115h-.518v2.115h-.517v-2.115h-.518v2.115h-.517v-2.115h-.579v3.654h7.905v-3.654h-.596v2.115zm-6.73-9.014h.517v2.11h.518v-2.038l-1.614-1.614v3.652h.579v-2.11z"/><path class="cls-16" d="M105.615 441.367h.518v2.115h-.518zm0-3.999h.518v3.21h-.518zm0-2.9h.518v2.11h-.518z"/><path class="cls-14" d="M107.167 434.468h-.517v.072l.517.518v-.59z"/><path class="cls-16" d="M107.167 435.058l-.517-.518v2.038h.517v-1.52zm-.517 6.309h.517v2.115h-.517zm0-3.999h.517v3.21h-.517z"/><path class="cls-14" d="M108.204 434.468h-.519v1.107l.519.517v-1.624z"/><path class="cls-16" d="M107.685 437.368h.519v3.21h-.519zm.519-.79v-.486l-.519-.517v1.003h.519zm-.519 4.789h.519v2.115h-.519zm1.035 0h.519v2.115h-.519zm0-3.999h.519v3.21h-.519z"/><path class="cls-14" d="M108.72 434.468h.519v2.11h-.519z"/><path class="cls-16" d="M109.755 441.367h.518v2.115h-.518zm0-3.722v2.933h.519v-2.413l-.519-.52z"/><path class="cls-14" d="M109.755 434.468h.518v2.11h-.518zm.519 3.697v-.797h-.519v.277l.519.52z"/><path class="cls-16" d="M110.791 438.682v1.896h.519v-1.38l-.519-.516zm0 2.685h.519v2.115h-.519z"/><path class="cls-14" d="M110.791 434.468h.519v2.11h-.519zm.519 4.73v-1.83h-.519v1.314l.519.516zm.517-4.73h.519v2.11h-.519zm0 5.248l.518.517v-2.865h-.518v2.348z"/><path class="cls-16" d="M111.827 441.367h.519v2.115h-.519zm0-1.651v.862h.518v-.345l-.518-.517z"/><path class="cls-2" d="M112.941 440.83v-.252h-.252l.252.252z"/><path class="cls-15" d="M112.689 440.578h-7.653v.789h7.905v-.537l-.252-.252zm-3.45-3.449l-.519-.519-.03-.032h-3.654v.79h4.442l-.239-.239z"/><path class="cls-2" d="M112.345 436.578h-3.655l.03.032.519.519.239.239h3.463v-.79h-.596z"/><path class="cls-15" d="M99.531 415.95h3.105v1.687h-3.105z"/><path class="cls-2" d="M107.425 431.239h3.106v1.687h-3.106z"/><path class="cls-17" d="M108.995 428.59h-.034l-.197 2.649h.426l-.195-2.649zm-15.798-29.598h-.034l-.196 2.65h.426l-.196-2.65z"/><path class="cls-2" d="M92.636 401.642h.544v.444h-.544z"/><path class="cls-6" d="M93.18 401.642h.543v.444h-.543z"/><path class="cls-16" d="M68.533 445.02h46.615v1.652H68.533z"/><path class="cls-6" d="M69.789 446.672h44.102V450H69.789z"/><path class="cls-2" d="M68.533 444.26h12.79v.76h-12.79z"/><path class="cls-12" d="M68.981 443.555h.682v.705h-.682zm1.024 0h.683v.705h-.683zm1.024 0h.683v.705h-.683zm1.024 0h.682v.705h-.682zm1.024 0h.682v.705h-.682zm1.023 0h.683v.705H74.1zm1.024 0h.683v.705h-.683zm1.024 0h.682v.705h-.682zm1.023 0h.683v.705h-.683zm1.024 0h.683v.705h-.683zm1.024 0h.682v.705h-.682zm1.024 0h.683v.705h-.683z"/><path class="cls-18" d="M113.891 446.672H69.789l.961.963h43.141v-.963z"/><path class="cls-3" d="M77.883 446.672h3.437v3.321h-3.437z"/><path class="cls-19" d="M77.883 446.672h3.437v.175h-3.437zm0 .35h3.437v.174h-3.437zm0 .349h3.437v.175h-3.437zm0 .351h3.437v.175h-3.437zm0 .349h3.437v.174h-3.437zm0 .35h3.437v.174h-3.437zm0 .35h3.437v.173h-3.437zm0 .348h3.437v.175h-3.437zm0 .349h3.437v.175h-3.437zm0 .35h3.437v.175h-3.437z"/><path class="cls-20" d="M154.585 410.02v-3.847h1.758v-2.88h10.488l4.976 4.976v-7.892h-20.44v44.056h1.599V410.02h1.619z"/><path class="cls-21" d="M166.831 403.293v2.88h1.759v3.847h1.619v34.413h1.598v-36.164l-4.976-4.976z"/><path class="cls-22" d="M168.59 410.02v-3.847h-1.759v-2.88h-10.488v2.88h-1.758v3.847h-1.619v34.413h17.243V410.02h-1.619z"/><path class="cls-2" d="M165.17 397.441h3.106v1.688h-3.106z"/><path class="cls-17" d="M166.74 394.793h-.034l-.196 2.648h.426l-.196-2.648z"/><path class="cls-23" d="M160.335 405.113h2.505v1.027h-2.505zm0 2.054h2.505v1.025h-2.505zm0 2.052h2.505v1.028h-2.505zm0 2.055h2.505v1.026h-2.505zm0 2.009h2.505v1.028h-2.505zm0 2.055h2.505v1.026h-2.505zm0 2.054h2.505v1.025h-2.505zm0 2.051h2.505v1.028h-2.505zm0 2.054h2.505v1.026h-2.505zm0 2.055h2.505v1.026h-2.505zm0 2.054h2.505v1.026h-2.505zm0 2.052h2.505v1.026h-2.505zm0 2.012h2.505v1.024h-2.505zm0 2.052h2.505v1.027h-2.505zm0 2.054h2.505v1.025h-2.505zm0 2.054h2.505v1.026h-2.505zm0 2.053h2.505v1.027h-2.505zm0 2.054h2.505v1.026h-2.505zm0 2.052h2.505v1.027h-2.505zm3.755-34.822h2.502v1.025h-2.502zm0 2.052h2.502v1.028h-2.502zm0 2.055h2.502v1.026h-2.502zm0 2.009h2.502v1.028h-2.502zm0 2.055h2.502v1.026h-2.502zm0 2.054h2.502v1.025h-2.502zm0 2.051h2.502v1.028h-2.502zm0 2.054h2.502v1.026h-2.502zm0 2.055h2.502v1.026h-2.502zm0 2.054h2.502v1.026h-2.502zm0 2.052h2.502v1.026h-2.502zm0 2.012h2.502v1.024h-2.502zm0 2.052h2.502v1.027h-2.502zm0 2.054h2.502v1.025h-2.502zm0 2.054h2.502v1.026h-2.502zm0 2.053h2.502v1.027h-2.502zm0 2.054h2.502v1.026h-2.502zm0 2.052h2.502v1.027h-2.502zm-7.508-34.822h2.502v1.025h-2.502zm0 2.052h2.502v1.028h-2.502zm0 2.055h2.502v1.026h-2.502zm0 2.009h2.502v1.028h-2.502zm0 2.055h2.502v1.026h-2.502zm0 2.054h2.502v1.025h-2.502zm0 2.051h2.502v1.028h-2.502zm0 2.054h2.502v1.026h-2.502zm0 2.055h2.502v1.026h-2.502zm0 2.054h2.502v1.026h-2.502zm0 2.052h2.502v1.026h-2.502zm0 2.012h2.502v1.024h-2.502zm0 2.052h2.502v1.027h-2.502zm0 2.054h2.502v1.025h-2.502zm0 2.054h2.502v1.026h-2.502zm0 2.053h2.502v1.027h-2.502zm0 2.054h2.502v1.026h-2.502zm0 2.052h2.502v1.027h-2.502z"/><path class="cls-6" d="M152.966 399.129h17.242v1.278h-17.242z"/><path class="cls-24" d="M155.47 397.301h1.548v1.828h-1.548z"/><path class="cls-25" d="M171.807 400.377h.621v44.056h-.621zm-21.06 0h.62v44.056h-.62z"/><path class="cls-26" d="M154.972 447.274h1.213v2.698h-1.213zm4.004 0h1.215v2.698h-1.215zm4.006 0h1.216v2.698h-1.216zm4.007 0h1.213v2.698h-1.213zm-16.086-.001l1.275 1.278v-1.278h-1.275z"/><path class="cls-27" d="M150.903 447.273v-.721h21.369l2.065 2.064v-4.183h-25.5v5.539h3.341v-1.421l-1.275-1.278z"/><path class="cls-26" d="M172.272 446.552v.721h-1.277v2.699h3.342v-1.356l-2.065-2.064z"/><path class="cls-28" d="M153.756 447.274h1.216v2.698h-1.216zm-1.578 1.277l1.214 1.215v-2.493h-1.214v1.278z"/><path class="cls-3" d="M152.178 448.551v1.421h1.214v-.206l-1.214-1.215z"/><path class="cls-29" d="M153.392 447.273v2.493l.207.206h.157v-2.699h-.364z"/><path class="cls-4" d="M153.392 449.972h.207l-.207-.206v.206z"/><path class="cls-28" d="M156.185 447.274h1.213v2.698h-1.213zm1.578 0h1.213v2.698h-1.213z"/><path class="cls-29" d="M157.398 447.274h.365v2.698h-.365z"/><path class="cls-28" d="M160.191 447.274h1.214v2.698h-1.214zm1.579 0h1.212v2.698h-1.212z"/><path class="cls-29" d="M161.405 447.274h.365v2.698h-.365z"/><path class="cls-28" d="M165.776 447.274h1.213v2.698h-1.213zm-1.578 0h1.214v2.698h-1.214z"/><path class="cls-29" d="M165.412 447.274h.364v2.698h-.364z"/><path class="cls-28" d="M169.781 447.274h1.214v2.698h-1.214zm-1.579 0h1.215v2.698h-1.215z"/><path class="cls-29" d="M169.417 447.274h.364v2.698h-.364z"/><path class="cls-30" d="M150.903 446.552v.721h10.683v-.721h-10.683z"/><path class="cls-7" d="M161.586 446.552v.721h10.686v-.721h-10.686z"/><path class="cls-20" d="M338.402 410.02v-3.847h1.759v-2.88h10.487l4.977 4.976v-7.892h-20.44v44.056h1.599V410.02h1.618z"/><path class="cls-21" d="M350.648 403.293v2.88h1.76v3.847h1.618v34.413h1.599v-36.164l-4.977-4.976z"/><path class="cls-22" d="M352.408 410.02v-3.847h-1.76v-2.88h-10.487v2.88h-1.759v3.847h-1.618v34.413h17.242V410.02h-1.618z"/><path class="cls-2" d="M348.988 397.441h3.105v1.688h-3.105z"/><path class="cls-17" d="M350.558 394.793h-.035l-.195 2.648h.426l-.196-2.648z"/><path class="cls-23" d="M344.152 405.113h2.505v1.027h-2.505zm0 2.054h2.505v1.025h-2.505zm0 2.052h2.505v1.028h-2.505zm0 2.055h2.505v1.026h-2.505zm0 2.009h2.505v1.028h-2.505zm0 2.055h2.505v1.026h-2.505zm0 2.054h2.505v1.025h-2.505zm0 2.051h2.505v1.028h-2.505zm0 2.054h2.505v1.026h-2.505zm0 2.055h2.505v1.026h-2.505zm0 2.054h2.505v1.026h-2.505zm0 2.052h2.505v1.026h-2.505zm0 2.012h2.505v1.024h-2.505zm0 2.052h2.505v1.027h-2.505zm0 2.054h2.505v1.025h-2.505zm0 2.054h2.505v1.026h-2.505zm0 2.053h2.505v1.027h-2.505zm0 2.054h2.505v1.026h-2.505zm0 2.052h2.505v1.027h-2.505zm3.756-34.822h2.502v1.025h-2.502zm0 2.052h2.502v1.028h-2.502zm0 2.055h2.502v1.026h-2.502zm0 2.009h2.502v1.028h-2.502zm0 2.055h2.502v1.026h-2.502zm0 2.054h2.502v1.025h-2.502zm0 2.051h2.502v1.028h-2.502zm0 2.054h2.502v1.026h-2.502zm0 2.055h2.502v1.026h-2.502zm0 2.054h2.502v1.026h-2.502zm0 2.052h2.502v1.026h-2.502zm0 2.012h2.502v1.024h-2.502zm0 2.052h2.502v1.027h-2.502zm0 2.054h2.502v1.025h-2.502zm0 2.054h2.502v1.026h-2.502zm0 2.053h2.502v1.027h-2.502zm0 2.054h2.502v1.026h-2.502zm0 2.052h2.502v1.027h-2.502zm-7.509-34.822h2.502v1.025h-2.502zm0 2.052h2.502v1.028h-2.502zm0 2.055h2.502v1.026h-2.502zm0 2.009h2.502v1.028h-2.502zm0 2.055h2.502v1.026h-2.502zm0 2.054h2.502v1.025h-2.502zm0 2.051h2.502v1.028h-2.502zm0 2.054h2.502v1.026h-2.502zm0 2.055h2.502v1.026h-2.502zm0 2.054h2.502v1.026h-2.502zm0 2.052h2.502v1.026h-2.502zm0 2.012h2.502v1.024h-2.502zm0 2.052h2.502v1.027h-2.502zm0 2.054h2.502v1.025h-2.502zm0 2.054h2.502v1.026h-2.502zm0 2.053h2.502v1.027h-2.502zm0 2.054h2.502v1.026h-2.502zm0 2.052h2.502v1.027h-2.502z"/><path class="cls-6" d="M336.784 399.129h17.242v1.278h-17.242z"/><path class="cls-24" d="M339.288 397.301h1.548v1.828h-1.548z"/><path class="cls-25" d="M355.625 400.377h.621v44.056h-.621zm-21.061 0h.62v44.056h-.62z"/><path class="cls-26" d="M338.79 447.274h1.213v2.698h-1.213zm4.004 0h1.215v2.698h-1.215zm4.006 0h1.216v2.698H346.8zm4.007 0h1.213v2.698h-1.213zm-16.086-.001l1.275 1.278v-1.278h-1.275z"/><path class="cls-27" d="M334.721 447.273v-.721h21.369l2.065 2.064v-4.183h-25.5v5.539h3.341v-1.421l-1.275-1.278z"/><path class="cls-26" d="M356.09 446.552v.721h-1.277v2.699h3.342v-1.356l-2.065-2.064z"/><path class="cls-28" d="M337.574 447.274h1.216v2.698h-1.216zm-1.578 1.277l1.214 1.215v-2.493h-1.214v1.278z"/><path class="cls-3" d="M335.996 448.551v1.421h1.214v-.206l-1.214-1.215z"/><path class="cls-29" d="M337.21 447.273v2.493l.207.206h.157v-2.699h-.364z"/><path class="cls-4" d="M337.21 449.972h.207l-.207-.206v.206z"/><path class="cls-28" d="M340.003 447.274h1.213v2.698h-1.213zm1.578 0h1.213v2.698h-1.213z"/><path class="cls-29" d="M341.216 447.274h.365v2.698h-.365z"/><path class="cls-28" d="M344.009 447.274h1.214v2.698h-1.214zm1.579 0h1.212v2.698h-1.212z"/><path class="cls-29" d="M345.223 447.274h.365v2.698h-.365z"/><path class="cls-28" d="M349.594 447.274h1.213v2.698h-1.213zm-1.578 0h1.214v2.698h-1.214z"/><path class="cls-29" d="M349.229 447.274h.364v2.698h-.364z"/><path class="cls-28" d="M353.599 447.274h1.214v2.698h-1.214zm-1.58 0h1.215v2.698h-1.215z"/><path class="cls-29" d="M353.234 447.274h.364v2.698h-.364z"/><path class="cls-30" d="M334.721 446.552v.721h10.683v-.721h-10.683z"/><path class="cls-7" d="M345.404 446.552v.721h10.686v-.721h-10.686z"/><path class="cls-31" d="M174.337 398.654h17.371v32.905h-17.371zm0 37.002h17.371v14.315h-17.371z"/><path class="cls-32" d="M174.337 400.488h17.371v.679h-17.371zm0 28.561h17.371v.678h-17.371zm0 18.383h17.371v.678h-17.371z"/><path class="cls-33" d="M175.369 401.167h1.032v27.882h-1.032zm2.065 0h1.031v27.882h-1.031zm2 0h1.033v27.882h-1.033zm2.065 0h1.032v27.882h-1.032zm2.064 0h1.032v27.882h-1.032zm2.064 0h1.032v27.882h-1.032zm2.001 0h1.032v27.882h-1.032zm2.065 0h1.033v27.882h-1.033zm-14.324 35.501h1.032v10.753h-1.032zm2.065 0h1.031v10.753h-1.031zm2 0h1.033v10.753h-1.033zm2.065 0h1.032v10.753h-1.032zm2.064 0h1.032v10.753h-1.032zm2.064 0h1.032v10.753h-1.032zm2.001 0h1.032v10.753h-1.032zm2.065 0h1.033v10.753h-1.033z"/><path class="cls-34" d="M180.388 448.109h1.927v1.862h-1.927z"/><path class="cls-35" d="M181.227 448.109h.252v1.862h-.252z"/><path class="cls-34" d="M183.668 448.109h1.927v1.862h-1.927z"/><path class="cls-35" d="M184.504 448.109h.251v1.862h-.251z"/><path class="cls-34" d="M191.709 435.656v-4.096h-12.453l4.097 4.096h8.356z"/><path class="cls-33" d="M179.256 431.56v4.096h4.097l-4.097-4.096zm15.464-32.906h-3.011v51.318h3.011v-51.318z"/><path class="cls-34" d="M194.72 435.639h6.654v14.333h-6.654z"/><path class="cls-20" d="M376.877 394.697h18.711v35.442h-18.711zm0 39.856h18.711v15.419h-18.711z"/><path class="cls-48" d="M376.877 396.673h18.711v.731h-18.711zm0 30.763h18.711v.73h-18.711zm0 19.799h18.711v.731h-18.711z"/><path class="cls-51" d="M377.987 397.403h1.113v30.032h-1.113zm2.227 0h1.11v30.032h-1.11zm2.153 0h1.113v30.032h-1.113zm2.224 0h1.111v30.032h-1.111zm2.223 0h1.111v30.032h-1.111zm2.224 0h1.111v30.032h-1.111zm2.154 0h1.113v30.032h-1.113zm2.224 0h1.113v30.032h-1.113zm-15.429 38.24h1.113v11.582h-1.113zm2.227 0h1.11v11.582h-1.11zm2.153 0h1.113v11.582h-1.113zm2.224 0h1.111v11.582h-1.111zm2.223 0h1.111v11.582h-1.111zm2.224 0h1.111v11.582h-1.111zm2.154 0h1.113v11.582h-1.113zm2.224 0h1.113v11.582h-1.113zm-10.022 12.323h2.076v2.006h-2.076z"/><path class="cls-20" d="M384.299 447.966h.272v2.006h-.272z"/><path class="cls-51" d="M386.927 447.966h2.076v2.006h-2.076z"/><path class="cls-20" d="M387.829 447.966h.27v2.006h-.27z"/><path class="cls-51" d="M395.588 434.553v-4.413h-13.412l4.412 4.413h9z"/><path class="cls-21" d="M382.176 430.14v4.413h4.412l-4.412-4.413zm16.655-35.443h-3.243v55.275h3.243v-55.275z"/><path class="cls-51" d="M398.831 434.533h7.168v15.438h-7.168z"/><path class="cls-31" d="M131.802 405.95h7.58v9.611h-7.58z"/><path class="cls-36" d="M139.382 405.95h7.803v9.611h-7.803z"/><path class="cls-22" d="M145.568 415.562v-3.848h-1.759v-2.883h-1.754v-2.881h-1.763v-2.882h-1.594v2.882h-1.765v2.881h-1.754v2.883h-1.76v3.848h-1.617v34.41h15.383v-34.41h-1.617z"/><path class="cls-31" d="M134.265 416.761h.787v27.751h-.787zm1.575 0h.787v27.751h-.787zm1.576 0h.786v27.751h-.786zm1.573 0h.787v27.751h-.787zm1.574 0h.788v27.751h-.788zm1.574 0h.787v27.751h-.787zm1.575 0h.787v27.751h-.787zm-9.447-3.765h.787v2.518h-.787zm1.575 0h.787v2.518h-.787zm1.576 0h.786v2.518h-.786zm1.573 0h.787v2.518h-.787zm1.574 0h.788v2.518h-.788zm1.574 0h.787v2.518h-.787zm1.575 0h.787v2.518h-.787z"/><path class="cls-37" d="M147.185 403.068h1.67v46.903h-1.67z"/><path class="cls-38" d="M130.133 403.068h1.669v46.903h-1.669z"/><path class="cls-33" d="M130.133 444.512h18.722v5.46h-18.722z"/><path class="cls-22" d="M147.185 446.886h-15.383v1.277l1.81 1.809h11.765l1.808-1.809v-1.277z"/><path class="cls-39" d="M131.802 448.163h1.81v1.809h-1.81zm2.713 0h1.809v1.809h-1.809zm2.723 0h1.81v1.809h-1.81zm2.714 0h1.808v1.809h-1.808zm2.713 0h1.808v1.809h-1.808zm2.712 0h1.808v1.809h-1.808z"/><path class="cls-38" d="M131.802 415.514h15.383v1.247h-15.383z"/><g><path class="cls-5" d="M359.824 405.95h7.58v9.611h-7.58z"/><path class="cls-9" d="M367.404 405.95h7.803v9.611h-7.803z"/><path class="cls-22" d="M373.59 415.562v-3.848h-1.759v-2.883h-1.754v-2.881h-1.763v-2.882h-1.594v2.882h-1.765v2.881h-1.754v2.883h-1.76v3.848h-1.617v34.41h15.383v-34.41h-1.617z"/><path class="cls-9" d="M362.287 416.761h.787v27.751h-.787zm1.575 0h.787v27.751h-.787zm1.576 0h.786v27.751h-.786zm1.573 0h.787v27.751h-.787zm1.574 0h.788v27.751h-.788zm1.574 0h.787v27.751h-.787zm1.575 0h.787v27.751h-.787zm-9.447-3.765h.787v2.518h-.787zm1.575 0h.787v2.518h-.787zm1.576 0h.786v2.518h-.786zm1.573 0h.787v2.518h-.787zm1.574 0h.788v2.518h-.788zm1.574 0h.787v2.518h-.787zm1.575 0h.787v2.518h-.787z"/><path class="cls-37" d="M375.207 403.068h1.67v46.903h-1.67z"/><path class="cls-38" d="M358.155 403.068h1.669v46.903h-1.669z"/><path class="cls-65" d="M358.155 444.512h18.722v5.46h-18.722z"/><path class="cls-22" d="M375.207 446.886h-15.383v1.277l1.81 1.809h11.765l1.808-1.809v-1.277z"/><path class="cls-55" d="M359.824 448.163h1.81v1.809h-1.81zm2.713 0h1.809v1.809h-1.809zm2.723 0h1.81v1.809h-1.81zm2.714 0h1.808v1.809h-1.808zm2.713 0h1.808v1.809h-1.808zm2.712 0h1.808v1.809h-1.808z"/><path class="cls-38" d="M359.824 415.514h15.383v1.247h-15.383z"/></g><g><path class="cls-31" d="M225.964 405.95h7.58v9.611h-7.58z"/><path class="cls-36" d="M233.544 405.95h7.803v9.611h-7.803z"/><path class="cls-22" d="M239.73 415.562v-3.848h-1.759v-2.883h-1.754v-2.881h-1.764v-2.882h-1.594v2.882h-1.764v2.881h-1.754v2.883h-1.76v3.848h-1.617v34.41h15.383v-34.41h-1.617z"/><path class="cls-31" d="M228.427 416.761h.787v27.751h-.787zm1.575 0h.787v27.751h-.787zm1.575 0h.786v27.751h-.786zm1.573 0h.787v27.751h-.787zm1.575 0h.788v27.751h-.788zm1.574 0h.787v27.751h-.787zm1.575 0h.787v27.751h-.787zm-9.447-3.765h.787v2.518h-.787zm1.575 0h.787v2.518h-.787zm1.575 0h.786v2.518h-.786zm1.573 0h.787v2.518h-.787zm1.575 0h.788v2.518h-.788zm1.574 0h.787v2.518h-.787zm1.575 0h.787v2.518h-.787z"/><path class="cls-37" d="M241.347 403.068h1.67v46.903h-1.67z"/><path class="cls-38" d="M224.295 403.068h1.669v46.903h-1.669z"/><path class="cls-33" d="M224.295 444.512h18.722v5.46h-18.722z"/><path class="cls-22" d="M241.347 446.886h-15.383v1.277l1.809 1.809h11.766l1.808-1.809v-1.277z"/><path class="cls-39" d="M225.964 448.163h1.81v1.809h-1.81zm2.713 0h1.809v1.809h-1.809zm2.722 0h1.81v1.809h-1.81zm2.714 0h1.808v1.809h-1.808zm2.713 0h1.808v1.809h-1.808zm2.713 0h1.808v1.809h-1.808z"/><path class="cls-38" d="M225.964 415.514h15.383v1.247h-15.383z"/></g><g><path class="cls-37" d="M8.396 448.677h12.938V450H8.396z"/><path class="cls-22" d="M8.396 416.465h12.938v1.786H8.396z"/><path class="cls-5" d="M12.364 422.221h8.971v-1.325H11.041l1.323 1.325z"/><path class="cls-9" d="M11.041 420.896H8.396v1.325h3.968l-1.323-1.325z"/><path class="cls-5" d="M15.01 424.866h6.325v-1.323h-7.648l1.323 1.323z"/><path class="cls-9" d="M13.687 423.543H8.396v1.323h6.614l-1.323-1.323zm2.646 2.646H8.396v1.322h9.26l-1.323-1.322z"/><path class="cls-5" d="M17.656 427.511h3.679v-1.322h-5.002l1.323 1.322z"/><path class="cls-9" d="M18.979 428.834H8.396v1.323h11.905l-1.322-1.323z"/><path class="cls-5" d="M20.301 430.157h1.034v-1.323h-2.356l1.322 1.323z"/><path class="cls-9" d="M8.396 431.479h12.938v1.323H8.396zm0 2.646h12.938v1.323H8.396zm0 2.646h12.938v1.322H8.396zm0 2.646h12.938v1.323H8.396zm0 2.646h12.938v1.322H8.396zm0 2.646h12.938v1.322H8.396zm0 2.645h12.938v1.323H8.396z"/><path class="cls-54" d="M12.364 422.221H8.396v1.322h5.291l-1.323-1.322z"/><path class="cls-55" d="M13.687 423.543h7.648v-1.322h-8.971l1.323 1.322z"/><path class="cls-9" d="M8.396 418.251v1.323h1.323l-1.323-1.323z"/><path class="cls-5" d="M21.335 419.574v-1.323H8.396l1.323 1.323h11.616z"/><path class="cls-54" d="M9.719 419.574H8.396v1.322h2.645l-1.322-1.322z"/><path class="cls-55" d="M11.041 420.896h10.294v-1.322H9.719l1.322 1.322z"/><path class="cls-54" d="M15.01 424.866H8.396v1.323h7.937l-1.323-1.323z"/><path class="cls-55" d="M16.333 426.189h5.002v-1.323H15.01l1.323 1.323zm2.646 2.645h2.356v-1.323h-3.679l1.323 1.323z"/><path class="cls-54" d="M17.656 427.511h-9.26v1.323h10.583l-1.323-1.323zm2.645 2.646H8.396v1.322h12.939v-.291l-1.034-1.031z"/><path class="cls-55" d="M21.335 431.188v-1.031h-1.034l1.034 1.031z"/><path class="cls-54" d="M8.396 432.803h12.938v1.322H8.396zm0 2.645h12.938v1.322H8.396zm0 2.645h12.938v1.324H8.396zm0 2.647h12.938v1.323H8.396zm0 2.646h12.938v1.323H8.396zm0 2.645h12.938v1.322H8.396z"/><path class="cls-22" d="M.765 419.574h7.631V450H.765z"/><path class="cls-5" d="M1.477 420.897h6.919v1.324H1.477zm0 2.646h6.919v1.323H1.477zm0 2.647h6.919v1.321H1.477zm0 2.644h6.919v1.323H1.477zm0 2.645h6.919v1.323H1.477zm0 2.646h6.919v1.323H1.477zm0 2.646h6.919v1.322H1.477zm0 2.646h6.919v1.323H1.477zm0 2.646h6.919v1.322H1.477zm0 2.646h6.919v1.322H1.477zm0 2.645h6.919v1.323H1.477z"/><path class="cls-55" d="M1.477 422.221h6.919v1.322H1.477zm0 2.645h6.919v1.323H1.477zm0 2.645h6.919v1.323H1.477zm0 2.646h6.919v1.322H1.477zm0 2.646h6.919v1.322H1.477zm0 2.645h6.919v1.322H1.477zm0 2.645h6.919v1.324H1.477zm0 2.647h6.919v1.323H1.477zm0 2.646h6.919v1.323H1.477zm0 2.645h6.919v1.322H1.477z"/><path class="cls-22" d="M30.734 432.803h6.919V450h-6.919z"/><path class="cls-5" d="M30.734 434.125h6.919v1.323h-6.919zm0 2.646h6.919v1.322h-6.919zm0 2.646h6.919v1.323h-6.919zm0 2.646h6.919v1.322h-6.919zm0 2.646h6.919v1.322h-6.919zm0 2.645h6.919v1.323h-6.919z"/><path class="cls-55" d="M30.734 435.448h6.919v1.322h-6.919zm0 2.645h6.919v1.324h-6.919zm0 2.647h6.919v1.323h-6.919zm0 2.646h6.919v1.323h-6.919zm0 2.645h6.919v1.322h-6.919z"/><path class="cls-22" d="M21.335 427.511h9.4V450h-9.4z"/><path class="cls-5" d="M21.335 428.834h9.4v1.323h-9.4zm0 2.645h9.4v1.323h-9.4zm0 2.646h9.4v1.323h-9.4zm0 2.646h9.4v1.322h-9.4zm0 2.646h9.4v1.323h-9.4zm0 2.646h9.4v1.322h-9.4zm0 2.646h9.4v1.322h-9.4zm0 2.645h9.4v1.323h-9.4z"/><path class="cls-55" d="M21.335 430.157h9.4v1.322h-9.4zm0 2.646h9.4v1.322h-9.4zm0 2.645h9.4v1.322h-9.4zm0 2.645h9.4v1.324h-9.4zm0 2.647h9.4v1.323h-9.4zm0 2.646h9.4v1.323h-9.4zm0 2.645h9.4v1.322h-9.4z"/><path class="cls-38" d="M0 418.251h8.396v2.646H0zm30.734 13.228h8.131v2.646h-8.131zm-9.399-5.289h10.696v2.644H21.335zM7.228 415.606h15.291v2.644H7.228zm14.107 13.228h.712v19.843h-.712zm-20.57-7.937h.712v27.78H.765zm29.969 13.228h.713v14.552h-.713zM9.108 418.251h-.712l.712.712v-.712z"/><path class="cls-56" d="M8.396 418.251v30.426h.712v-29.714l-.712-.712z"/><path class="cls-57" d="M14.874 413.599h5.168v2.008h-5.168z"/><path class="cls-58" d="M9.706 413.599h5.168v2.008H9.706z"/></g><g><path class="cls-40" d="M49.383 406.404h3.106v1.687h-3.106z"/><path class="cls-17" d="M50.953 403.755h-.034l-.196 2.649h.426l-.196-2.649z"/><path class="cls-40" d="M38.009 406.404h3.105v1.687h-3.105z"/><path class="cls-17" d="M39.579 403.755h-.034l-.196 2.649h.426l-.196-2.649z"/><path class="cls-2" d="M34.29 408.091h21.92V450H34.29z"/><path class="cls-5" d="M35.297 411.343h2.502v1.026h-2.502zm2.918 0h2.503v1.026h-2.503zm2.883 0H43.6v1.026h-2.502zm2.919 0h2.502v1.026h-2.502zm2.881 0h2.503v1.026h-2.503zm2.919 0h2.502v1.026h-2.502zm2.883 0h2.502v1.026H52.7zm-17.403 1.539h2.502v1.027h-2.502zm2.918 0h2.503v1.027h-2.503zm2.883 0H43.6v1.027h-2.502zm2.919 0h2.502v1.027h-2.502zm2.881 0h2.503v1.027h-2.503zm2.919 0h2.502v1.027h-2.502zm2.883 0h2.502v1.027H52.7zm-17.403 1.541h2.502v1.026h-2.502zm2.918 0h2.503v1.026h-2.503zm2.883 0H43.6v1.026h-2.502zm2.919 0h2.502v1.026h-2.502zm2.881 0h2.503v1.026h-2.503zm2.919 0h2.502v1.026h-2.502zm2.883 0h2.502v1.026H52.7zm-17.403 1.539h2.502v1.026h-2.502zm2.918 0h2.503v1.026h-2.503zm2.883 0H43.6v1.026h-2.502zm2.919 0h2.502v1.026h-2.502zm2.881 0h2.503v1.026h-2.503zm2.919 0h2.502v1.026h-2.502zm2.883 0h2.502v1.026H52.7zm-17.403 1.54h2.502v1.026h-2.502zm2.918 0h2.503v1.026h-2.503zm2.883 0H43.6v1.026h-2.502zm2.919 0h2.502v1.026h-2.502zm2.881 0h2.503v1.026h-2.503zm2.919 0h2.502v1.026h-2.502zm2.883 0h2.502v1.026H52.7zm-17.403 1.539h2.502v1.027h-2.502zm2.918 0h2.503v1.027h-2.503zm2.883 0H43.6v1.027h-2.502zm2.919 0h2.502v1.027h-2.502zm2.881 0h2.503v1.027h-2.503zm2.919 0h2.502v1.027h-2.502zm2.883 0h2.502v1.027H52.7zm-17.403 1.54h2.502v1.027h-2.502zm2.918 0h2.503v1.027h-2.503zm2.883 0H43.6v1.027h-2.502zm2.919 0h2.502v1.027h-2.502zm2.881 0h2.503v1.027h-2.503zm2.919 0h2.502v1.027h-2.502zm2.883 0h2.502v1.027H52.7zm-17.403 1.54h2.502v1.026h-2.502zm2.918 0h2.503v1.026h-2.503zm2.883 0H43.6v1.026h-2.502zm2.919 0h2.502v1.026h-2.502zm2.881 0h2.503v1.026h-2.503zm2.919 0h2.502v1.026h-2.502zm2.883 0h2.502v1.026H52.7zm-17.403 1.54h2.502v1.026h-2.502zm2.918 0h2.503v1.026h-2.503zm2.883 0H43.6v1.026h-2.502zm2.919 0h2.502v1.026h-2.502zm2.881 0h2.503v1.026h-2.503zm2.919 0h2.502v1.026h-2.502zm2.883 0h2.502v1.026H52.7zm-17.403 1.54h2.502v1.026h-2.502zm2.918 0h2.503v1.026h-2.503zm2.883 0H43.6v1.026h-2.502zm2.919 0h2.502v1.026h-2.502zm2.881 0h2.503v1.026h-2.503zm2.919 0h2.502v1.026h-2.502zm2.883 0h2.502v1.026H52.7zm-17.403 1.539h2.502v1.027h-2.502zm2.918 0h2.503v1.027h-2.503zm2.883 0H43.6v1.027h-2.502zm2.919 0h2.502v1.027h-2.502zm2.881 0h2.503v1.027h-2.503zm2.919 0h2.502v1.027h-2.502zm2.883 0h2.502v1.027H52.7zm-17.403 1.54h2.502v1.026h-2.502zm2.918 0h2.503v1.026h-2.503zm2.883 0H43.6v1.026h-2.502zm2.919 0h2.502v1.026h-2.502zm2.881 0h2.503v1.026h-2.503zm2.919 0h2.502v1.026h-2.502zm2.883 0h2.502v1.026H52.7zm-17.403 1.54h2.502v1.026h-2.502zm2.918 0h2.503v1.026h-2.503zm2.883 0H43.6v1.026h-2.502zm2.919 0h2.502v1.026h-2.502zm2.881 0h2.503v1.026h-2.503zm2.919 0h2.502v1.026h-2.502zm2.883 0h2.502v1.026H52.7zm-17.403 1.54h2.502v1.026h-2.502zm2.918 0h2.503v1.026h-2.503zm2.883 0H43.6v1.026h-2.502zm2.919 0h2.502v1.026h-2.502zm2.881 0h2.503v1.026h-2.503zm2.919 0h2.502v1.026h-2.502zm2.883 0h2.502v1.026H52.7zm-17.403 1.539h2.502v1.027h-2.502zm2.918 0h2.503v1.027h-2.503zm2.883 0H43.6v1.027h-2.502zm2.919 0h2.502v1.027h-2.502zm2.881 0h2.503v1.027h-2.503zm2.919 0h2.502v1.027h-2.502zm2.883 0h2.502v1.027H52.7zm-17.403 1.541h2.502v1.028h-2.502zm2.918 0h2.503v1.028h-2.503zm2.883 0H43.6v1.028h-2.502zm2.919 0h2.502v1.028h-2.502zm2.881 0h2.503v1.028h-2.503zm2.919 0h2.502v1.028h-2.502zm2.883 0h2.502v1.028H52.7zm-17.403 1.539h2.502v1.027h-2.502zm2.918 0h2.503v1.027h-2.503zm2.883 0H43.6v1.027h-2.502zm2.919 0h2.502v1.027h-2.502zm2.881 0h2.503v1.027h-2.503zm2.919 0h2.502v1.027h-2.502zm2.883 0h2.502v1.027H52.7zm-17.403 1.541h2.502v1.026h-2.502zm2.918 0h2.503v1.026h-2.503zm2.883 0H43.6v1.026h-2.502zm2.919 0h2.502v1.026h-2.502zm2.881 0h2.503v1.026h-2.503zm2.919 0h2.502v1.026h-2.502zm2.883 0h2.502v1.026H52.7zm-17.403 1.539h2.502v1.027h-2.502zm2.918 0h2.503v1.027h-2.503zm2.883 0H43.6v1.027h-2.502zm2.919 0h2.502v1.027h-2.502zm2.881 0h2.503v1.027h-2.503zm2.919 0h2.502v1.027h-2.502zm2.883 0h2.502v1.027H52.7zm-17.403 1.54h2.502v1.027h-2.502zm2.918 0h2.503v1.027h-2.503zm2.883 0H43.6v1.027h-2.502zm2.919 0h2.502v1.027h-2.502zm2.881 0h2.503v1.027h-2.503zm2.919 0h2.502v1.027h-2.502zm2.883 0h2.502v1.027H52.7zm-17.403 1.541h2.502v1.025h-2.502zm2.918 0h2.503v1.025h-2.503zm2.883 0H43.6v1.025h-2.502zm2.919 0h2.502v1.025h-2.502zm2.881 0h2.503v1.025h-2.503zm2.919 0h2.502v1.025h-2.502zm2.883 0h2.502v1.025H52.7zm-17.403 1.539h2.502v1.027h-2.502zm2.918 0h2.503v1.027h-2.503zm2.883 0H43.6v1.027h-2.502zm2.919 0h2.502v1.027h-2.502zm2.881 0h2.503v1.027h-2.503zm2.919 0h2.502v1.027h-2.502zm2.883 0h2.502v1.027H52.7z"/><path class="cls-6" d="M35.297 408.091h.948v2.038h-.948zm1.895 0h.948v2.038h-.948zm1.896 0h.947v2.038h-.947zm1.896 0h.948v2.038h-.948zm1.895 0h.949v2.038h-.949zm1.897 0h.947v2.038h-.947zm1.894 0h.948v2.038h-.948zm1.897 0h.947v2.038h-.947zm1.895 0h.948v2.038h-.948zm1.896 0h.949v2.038h-.949zm1.895 0h.949v2.038h-.949zm1.957 3.25V426.4h2.818v-12.239l-2.818-2.82zm0 18.305v15.06h2.818v-12.24l-2.818-2.82z"/><path class="cls-15" d="M34.29 411.341V426.4h-2.82v-12.239l2.82-2.82zm0 18.305v15.06h-2.82v-12.24l2.82-2.82z"/><path class="cls-9" d="M55.202 446.313h-2.883l2.883 2.881v-2.881zm-16.987 1.71v-1.71h-2.918V450h2.918v-1.977z"/><path class="cls-41" d="M52.319 446.313V450h2.883v-.806l-2.883-2.881z"/><path class="cls-42" d="M47.698 447.192h-9.483l.141.141h13.963v-.141h-4.621z"/><path class="cls-43" d="M38.215 447.192v.141h.141l-.141-.141z"/><path class="cls-44" d="M44.171 447.333h1.025v.691h-1.025zm1.166 0h1.026v.691h-1.026zm-2.333.69h1.026v-.69h-1.026v.69z"/><path class="cls-45" d="M38.215 447.333v.69h.83l-.689-.69h-.141z"/><path class="cls-44" d="M42.523 447.333h-.684v.69h1.026v-.69h-.342zm-1.842 0h1.017v.691h-1.017zm-1.167 0h1.025v.691h-1.025zm-1.158 0l.689.69h.329v-.69h-1.018z"/><path class="cls-45" d="M39.187 448.163h-.972V450h1.159v-1.649l-.187-.188zM40.681 450h.341l-.341-.342V450zm-1.167-1.507V450h1.026v-.481l-1.026-1.026z"/><path class="cls-44" d="M40.681 448.163v1.495l.341.342h.676v-1.837h-1.017zm3.349 0h-1.026V450h1.026v-1.837zm-4.656 0h-.187l.187.188v-.188zm1.166 1.356v-1.356h-1.026v.33l1.026 1.026zm1.299-1.356h1.025V450h-1.025zm5.845 0h1.025V450h-1.025zm-1.181 0h1.04V450h-1.04zm3.506 0h1.025V450h-1.025zm-1.158 0h1.017V450h-1.017zm2.323 0h1.145V450h-1.145zm-7.003 0V450h1.026v-1.837zm.815.952h-.14v-.335h.14zm.351-.952V450h1.026v-1.837zm.344.952h-.14v-.335h.14zm3.17-1.782h1.017v.691h-1.017zm-1.153 0h-.014v.69h1.026v-.69h-1.012zm-1.195 0h1.04v.691h-1.04zm4.671 0v.69h1.145v-.69h-1.145zm-1.165 0h1.025v.691h-1.025z"/><path class="cls-43" d="M45.541 448.78h.14v.335h-.14zm-.696 0h.141v.335h-.141z"/><path class="cls-1" d="M38.215 448.163h.972l-.142-.14h-.83v.14zm1.159.188V450h.14v-1.507l-.14-.142zm1.166 1.168V450h.141v-.342l-.141-.139z"/><path class="cls-43" d="M51.174 448.023v-.69h-.14v.69h-1.025v-.69h-.141v.69h-1.017v-.69h-.141v.69h-1.026v-.69h-.14v.69h-1.041v-.69h-.14v.69h-1.026v-.69h-.14v.69h-1.026v-.69h-.141v.69h-1.026v-.69h-.139v.69h-1.026v-.69h-.141v.69h-1.017v-.69h-.141v.69h-1.026v-.69h-.14v.69h-.329l.142.14h.187v.188l.14.142v-.33h1.026v1.356l.141.139v-1.495h1.017V450h.141v-1.837h1.026V450h.139v-1.837h1.026V450h.141v-1.837h1.026V450h.14v-1.837h1.026V450h.14v-1.837h1.041V450h.14v-1.837h1.026V450h.141v-1.837h1.017V450h.141v-1.837h1.025V450h.14v-1.837h1.145v-.14h-1.145z"/><path class="cls-46" d="M38.215 446.313h7.057v.879h-7.057z"/><path class="cls-47" d="M45.272 446.313v.879h7.047v-.879h-7.047z"/><path class="cls-9" d="M58.512 413.645l.516.516V426.4h-.516v-12.755zm0 18.305l.516.516v12.24h-.516V431.95z"/><path class="cls-5" d="M31.999 413.645l-.516.516V426.4h.516v-12.755zm0 18.305l-.516.516v12.24h.516V431.95z"/></g><g><path class="cls-40" d="M275.298 406.404h3.107v1.687h-3.107z"/><path class="cls-17" d="M276.867 403.755h-.033l-.196 2.649h.426l-.197-2.649z"/><path class="cls-40" d="M263.924 406.404h3.106v1.687h-3.106z"/><path class="cls-17" d="M265.493 403.755h-.034l-.195 2.649h.425l-.196-2.649z"/><path class="cls-2" d="M260.204 408.091h21.92V450h-21.92z"/><path class="cls-5" d="M261.211 411.343h2.503v1.026h-2.503zm2.918 0h2.504v1.026h-2.504zm2.883 0h2.502v1.026h-2.502zm2.92 0h2.502v1.026h-2.502zm2.881 0h2.504v1.026h-2.504zm2.918 0h2.502v1.026h-2.502zm2.883 0h2.503v1.026h-2.503zm-17.403 1.539h2.503v1.027h-2.503zm2.918 0h2.504v1.027h-2.504zm2.883 0h2.502v1.027h-2.502zm2.92 0h2.502v1.027h-2.502zm2.881 0h2.504v1.027h-2.504zm2.918 0h2.502v1.027h-2.502zm2.883 0h2.503v1.027h-2.503zm-17.403 1.541h2.503v1.026h-2.503zm2.918 0h2.504v1.026h-2.504zm2.883 0h2.502v1.026h-2.502zm2.92 0h2.502v1.026h-2.502zm2.881 0h2.504v1.026h-2.504zm2.918 0h2.502v1.026h-2.502zm2.883 0h2.503v1.026h-2.503zm-17.403 1.539h2.503v1.026h-2.503zm2.918 0h2.504v1.026h-2.504zm2.883 0h2.502v1.026h-2.502zm2.92 0h2.502v1.026h-2.502zm2.881 0h2.504v1.026h-2.504zm2.918 0h2.502v1.026h-2.502zm2.883 0h2.503v1.026h-2.503zm-17.403 1.54h2.503v1.026h-2.503zm2.918 0h2.504v1.026h-2.504zm2.883 0h2.502v1.026h-2.502zm2.92 0h2.502v1.026h-2.502zm2.881 0h2.504v1.026h-2.504zm2.918 0h2.502v1.026h-2.502zm2.883 0h2.503v1.026h-2.503zm-17.403 1.539h2.503v1.027h-2.503zm2.918 0h2.504v1.027h-2.504zm2.883 0h2.502v1.027h-2.502zm2.92 0h2.502v1.027h-2.502zm2.881 0h2.504v1.027h-2.504zm2.918 0h2.502v1.027h-2.502zm2.883 0h2.503v1.027h-2.503zm-17.403 1.54h2.503v1.027h-2.503zm2.918 0h2.504v1.027h-2.504zm2.883 0h2.502v1.027h-2.502zm2.92 0h2.502v1.027h-2.502zm2.881 0h2.504v1.027h-2.504zm2.918 0h2.502v1.027h-2.502zm2.883 0h2.503v1.027h-2.503zm-17.403 1.54h2.503v1.026h-2.503zm2.918 0h2.504v1.026h-2.504zm2.883 0h2.502v1.026h-2.502zm2.92 0h2.502v1.026h-2.502zm2.881 0h2.504v1.026h-2.504zm2.918 0h2.502v1.026h-2.502zm2.883 0h2.503v1.026h-2.503zm-17.403 1.54h2.503v1.026h-2.503zm2.918 0h2.504v1.026h-2.504zm2.883 0h2.502v1.026h-2.502zm2.92 0h2.502v1.026h-2.502zm2.881 0h2.504v1.026h-2.504zm2.918 0h2.502v1.026h-2.502zm2.883 0h2.503v1.026h-2.503zm-17.403 1.54h2.503v1.026h-2.503zm2.918 0h2.504v1.026h-2.504zm2.883 0h2.502v1.026h-2.502zm2.92 0h2.502v1.026h-2.502zm2.881 0h2.504v1.026h-2.504zm2.918 0h2.502v1.026h-2.502zm2.883 0h2.503v1.026h-2.503zm-17.403 1.539h2.503v1.027h-2.503zm2.918 0h2.504v1.027h-2.504zm2.883 0h2.502v1.027h-2.502zm2.92 0h2.502v1.027h-2.502zm2.881 0h2.504v1.027h-2.504zm2.918 0h2.502v1.027h-2.502zm2.883 0h2.503v1.027h-2.503zm-17.403 1.54h2.503v1.026h-2.503zm2.918 0h2.504v1.026h-2.504zm2.883 0h2.502v1.026h-2.502zm2.92 0h2.502v1.026h-2.502zm2.881 0h2.504v1.026h-2.504zm2.918 0h2.502v1.026h-2.502zm2.883 0h2.503v1.026h-2.503zm-17.403 1.54h2.503v1.026h-2.503zm2.918 0h2.504v1.026h-2.504zm2.883 0h2.502v1.026h-2.502zm2.92 0h2.502v1.026h-2.502zm2.881 0h2.504v1.026h-2.504zm2.918 0h2.502v1.026h-2.502zm2.883 0h2.503v1.026h-2.503zm-17.403 1.54h2.503v1.026h-2.503zm2.918 0h2.504v1.026h-2.504zm2.883 0h2.502v1.026h-2.502zm2.92 0h2.502v1.026h-2.502zm2.881 0h2.504v1.026h-2.504zm2.918 0h2.502v1.026h-2.502zm2.883 0h2.503v1.026h-2.503zm-17.403 1.539h2.503v1.027h-2.503zm2.918 0h2.504v1.027h-2.504zm2.883 0h2.502v1.027h-2.502zm2.92 0h2.502v1.027h-2.502zm2.881 0h2.504v1.027h-2.504zm2.918 0h2.502v1.027h-2.502zm2.883 0h2.503v1.027h-2.503zm-17.403 1.541h2.503v1.028h-2.503zm2.918 0h2.504v1.028h-2.504zm2.883 0h2.502v1.028h-2.502zm2.92 0h2.502v1.028h-2.502zm2.881 0h2.504v1.028h-2.504zm2.918 0h2.502v1.028h-2.502zm2.883 0h2.503v1.028h-2.503zm-17.403 1.539h2.503v1.027h-2.503zm2.918 0h2.504v1.027h-2.504zm2.883 0h2.502v1.027h-2.502zm2.92 0h2.502v1.027h-2.502zm2.881 0h2.504v1.027h-2.504zm2.918 0h2.502v1.027h-2.502zm2.883 0h2.503v1.027h-2.503zm-17.403 1.541h2.503v1.026h-2.503zm2.918 0h2.504v1.026h-2.504zm2.883 0h2.502v1.026h-2.502zm2.92 0h2.502v1.026h-2.502zm2.881 0h2.504v1.026h-2.504zm2.918 0h2.502v1.026h-2.502zm2.883 0h2.503v1.026h-2.503zm-17.403 1.539h2.503v1.027h-2.503zm2.918 0h2.504v1.027h-2.504zm2.883 0h2.502v1.027h-2.502zm2.92 0h2.502v1.027h-2.502zm2.881 0h2.504v1.027h-2.504zm2.918 0h2.502v1.027h-2.502zm2.883 0h2.503v1.027h-2.503zm-17.403 1.54h2.503v1.027h-2.503zm2.918 0h2.504v1.027h-2.504zm2.883 0h2.502v1.027h-2.502zm2.92 0h2.502v1.027h-2.502zm2.881 0h2.504v1.027h-2.504zm2.918 0h2.502v1.027h-2.502zm2.883 0h2.503v1.027h-2.503zm-17.403 1.541h2.503v1.025h-2.503zm2.918 0h2.504v1.025h-2.504zm2.883 0h2.502v1.025h-2.502zm2.92 0h2.502v1.025h-2.502zm2.881 0h2.504v1.025h-2.504zm2.918 0h2.502v1.025h-2.502zm2.883 0h2.503v1.025h-2.503zm-17.403 1.539h2.503v1.027h-2.503zm2.918 0h2.504v1.027h-2.504zm2.883 0h2.502v1.027h-2.502zm2.92 0h2.502v1.027h-2.502zm2.881 0h2.504v1.027h-2.504zm2.918 0h2.502v1.027h-2.502zm2.883 0h2.503v1.027h-2.503z"/><path class="cls-6" d="M261.211 408.091h.948v2.038h-.948zm1.896 0h.947v2.038h-.947zm1.896 0h.947v2.038h-.947zm1.895 0h.948v2.038h-.948zm1.895 0h.949v2.038h-.949zm1.897 0h.947v2.038h-.947zm1.895 0h.948v2.038h-.948zm1.896 0h.947v2.038h-.947zm1.896 0h.948v2.038h-.948zm1.895 0h.948v2.038h-.948zm1.896 0h.949v2.038h-.949zm1.956 3.25V426.4h2.819v-12.239l-2.819-2.82zm0 18.305v15.06h2.819v-12.24l-2.819-2.82z"/><path class="cls-15" d="M260.204 411.341V426.4h-2.819v-12.239l2.819-2.82zm0 18.305v15.06h-2.819v-12.24l2.819-2.82z"/><path class="cls-9" d="M281.117 446.313h-2.884l2.884 2.881v-2.881zm-16.988 1.71v-1.71h-2.918V450h2.918v-1.977z"/><path class="cls-41" d="M278.233 446.313V450h2.884v-.806l-2.884-2.881z"/><path class="cls-42" d="M273.612 447.192h-9.483l.143.141h13.961v-.141h-4.621z"/><path class="cls-43" d="M264.129 447.192v.141h.143l-.143-.141z"/><path class="cls-44" d="M270.086 447.333h1.025v.691h-1.025zm1.166 0h1.025v.691h-1.025zm-2.333.69h1.025v-.69h-1.025v.69z"/><path class="cls-45" d="M264.129 447.333v.69h.83l-.687-.69h-.143z"/><path class="cls-44" d="M268.438 447.333h-.684v.69h1.025v-.69h-.341zm-1.842 0h1.017v.691h-1.017zm-1.167 0h1.025v.691h-1.025zm-1.157 0l.687.69h.33v-.69h-1.017z"/><path class="cls-45" d="M265.102 448.163h-.973V450h1.16v-1.649l-.187-.188zm1.494 1.837h.341l-.341-.342V450zm-1.167-1.507V450h1.025v-.481l-1.025-1.026z"/><path class="cls-44" d="M266.596 448.163v1.495l.341.342h.675v-1.837h-1.016zm3.348 0h-1.025V450h1.025v-1.837zm-4.655 0h-.187l.187.188v-.188zm1.165 1.356v-1.356h-1.025v.33l1.025 1.026zm1.3-1.356h1.025V450h-1.025zm5.845 0h1.025V450h-1.025zm-1.181 0h1.041V450h-1.041zm3.506 0h1.025V450h-1.025zm-1.158 0h1.018V450h-1.018zm2.323 0h1.145V450h-1.145zm-7.003 0V450h1.025v-1.837zm.814.952h-.14v-.335h.14zm.352-.952V450h1.025v-1.837zm.344.952h-.14v-.335h.14zm3.17-1.782h1.018v.691h-1.018zm-1.154 0h-.013v.69h1.025v-.69h-1.012zm-1.194 0h1.041v.691h-1.041zm4.671 0v.69h1.144v-.69h-1.144zm-1.165 0h1.025v.691h-1.025z"/><path class="cls-43" d="M271.455 448.78h.141v.335h-.141zm-.695 0h.141v.335h-.141z"/><path class="cls-1" d="M264.129 448.163h.973l-.143-.14h-.83v.14zm1.16.188V450h.14v-1.507l-.14-.142zm1.165 1.168V450h.142v-.342l-.142-.139z"/><path class="cls-43" d="M277.089 448.023v-.69h-.14v.69h-1.025v-.69h-.141v.69h-1.017v-.69h-.142v.69h-1.025v-.69h-.14v.69h-1.041v-.69h-.141v.69h-1.025v-.69h-.141v.69h-1.025v-.69h-.142v.69h-1.025v-.69h-.14v.69h-1.025v-.69h-.142v.69h-1.016v-.69h-.142v.69h-1.025v-.69h-.14v.69h-.33l.143.14h.187v.188l.14.142v-.33h1.025v1.356l.142.139v-1.495h1.016V450h.142v-1.837h1.025V450h.14v-1.837h1.025V450h.142v-1.837h1.025V450h.141v-1.837h1.025V450h.141v-1.837h1.041V450h.14v-1.837h1.025V450h.142v-1.837h1.017V450h.141v-1.837h1.025V450h.14v-1.837h1.144v-.14h-1.144z"/><path class="cls-46" d="M264.129 446.313h7.057v.879h-7.057z"/><path class="cls-47" d="M271.186 446.313v.879h7.047v-.879h-7.047z"/><path class="cls-9" d="M284.427 413.645l.516.516V426.4h-.516v-12.755zm0 18.305l.516.516v12.24h-.516V431.95z"/><path class="cls-5" d="M257.913 413.645l-.515.516V426.4h.515v-12.755zm0 18.305l-.515.516v12.24h.515V431.95z"/></g><g><path class="cls-20" d="M254.799 439.175v-30.457h-11.772V450h31.662v-10.825h-19.89z"/><path class="cls-48" d="M243.027 416.55h4.988v1.332h-4.988zm6.782 0h4.99v1.332h-4.99zm-6.782 2.662h4.988v1.332h-4.988zm6.782 0h4.99v1.332h-4.99zm-6.782 2.661h4.988v1.331h-4.988zm6.782 0h4.99v1.331h-4.99zm-6.782 2.663h4.988v1.33h-4.988zm6.782 0h4.99v1.33h-4.99zm-6.782 2.661h4.988v1.331h-4.988zm6.782 0h4.99v1.331h-4.99zm-6.782 2.661h4.988v1.331h-4.988zm6.782 0h4.99v1.331h-4.99zm-6.782 2.663h4.988v1.331h-4.988zm6.782 0h4.99v1.331h-4.99zm-6.782 2.662h4.988v1.331h-4.988zm6.782 0h4.99v1.331h-4.99zm-6.782 2.66h4.988v1.332h-4.988zm6.782 0h4.99v1.332h-4.99zm-6.782 10.827h31.662V450h-31.662z"/><path class="cls-49" d="M241.623 439.175h34.472v3.672h-34.472z"/><path class="cls-16" d="M254.799 437.843v1.332h19.89l-11.417-1.332h-8.473z"/><path class="cls-50" d="M246.02 443.97l-1.827 1.825h1.827v-1.825z"/><path class="cls-51" d="M244.193 443.97v1.825l1.827-1.825h-1.827z"/><path class="cls-49" d="M243.852 446.138h2.51v-2.511h-2.51zm.341-2.168h1.826v1.825h-1.826z"/><path class="cls-50" d="M249.921 443.97l-1.826 1.825h1.826v-1.825z"/><path class="cls-51" d="M248.095 443.97v1.825l1.826-1.825h-1.826z"/><path class="cls-49" d="M247.752 446.138h2.512v-2.511h-2.512zm.343-2.168h1.826v1.825h-1.826z"/><path class="cls-50" d="M253.822 443.97l-1.826 1.825h1.826v-1.825z"/><path class="cls-51" d="M251.996 443.97v1.825l1.826-1.825h-1.826z"/><path class="cls-49" d="M251.654 446.138h2.511v-2.511h-2.51zm.342-2.168h1.826v1.825h-1.826z"/><path class="cls-50" d="M257.725 443.97l-1.827 1.825h1.827v-1.825z"/><path class="cls-51" d="M255.898 443.97v1.825l1.827-1.825h-1.827z"/><path class="cls-49" d="M255.556 446.138h2.511v-2.511h-2.511zm.342-2.168h1.827v1.825h-1.827z"/><path class="cls-50" d="M261.627 443.97l-1.826 1.825h1.826v-1.825z"/><path class="cls-51" d="M259.801 443.97v1.825l1.826-1.825h-1.826z"/><path class="cls-49" d="M259.459 446.138h2.51v-2.511h-2.51zm.342-2.168h1.826v1.825H259.8z"/><path class="cls-50" d="M265.529 443.97l-1.827 1.825h1.827v-1.825z"/><path class="cls-51" d="M263.702 443.97v1.825l1.827-1.825h-1.827z"/><path class="cls-49" d="M263.36 446.138h2.511v-2.511h-2.512zm.342-2.168h1.827v1.825h-1.827z"/><path class="cls-50" d="M269.43 443.97l-1.826 1.825h1.826v-1.825z"/><path class="cls-51" d="M267.604 443.97v1.825l1.826-1.825h-1.826z"/><path class="cls-49" d="M267.262 446.138h2.51v-2.511h-2.51zm.341-2.168h1.827v1.825h-1.827z"/><path class="cls-51" d="M271.506 445.795l1.826-1.825h-1.826v1.825z"/><path class="cls-50" d="M273.332 445.795v-1.825l-1.826 1.825h1.826z"/><path class="cls-49" d="M271.163 443.627v2.51h2.51v-2.51zm2.169 2.168h-1.826v-1.825h1.826z"/><path class="cls-50" d="M245.962 413.392l-1.826 1.827h1.826v-1.827z"/><path class="cls-51" d="M244.136 413.392v1.827l1.826-1.827h-1.826z"/><path class="cls-49" d="M243.793 415.562h2.512v-2.511h-2.512zm.343-2.17h1.826v1.827h-1.826z"/><path class="cls-50" d="M249.863 413.392l-1.826 1.827h1.826v-1.827z"/><path class="cls-51" d="M248.037 413.392v1.827l1.826-1.827h-1.826z"/><path class="cls-49" d="M247.695 415.562h2.511v-2.511h-2.51zm.342-2.17h1.826v1.827h-1.826z"/><path class="cls-51" d="M251.939 413.392v1.827l1.827-1.827h-1.827z"/><path class="cls-50" d="M253.766 413.392l-1.827 1.827h1.827v-1.827z"/><path class="cls-49" d="M251.597 415.562h2.511v-2.511h-2.511zm.342-2.17h1.827v1.827h-1.827z"/><path class="cls-51" d="M244.136 410.054v1.826l1.826-1.826h-1.826z"/><path class="cls-50" d="M245.962 410.054l-1.826 1.826h1.826v-1.826z"/><path class="cls-49" d="M243.793 412.223h2.512v-2.511h-2.512zm.343-2.17h1.826v1.827h-1.826z"/><path class="cls-51" d="M248.037 410.054v1.826l1.826-1.826h-1.826z"/><path class="cls-50" d="M249.863 410.054l-1.826 1.826h1.826v-1.826z"/><path class="cls-49" d="M247.695 412.223h2.511v-2.511h-2.51zm.342-2.17h1.826v1.827h-1.826z"/><path class="cls-50" d="M253.766 411.88v-1.826l-1.827 1.826h1.827z"/><path class="cls-51" d="M251.939 411.88l1.827-1.826h-1.827v1.826z"/><path class="cls-49" d="M251.597 409.712v2.51h2.511v-2.51zm2.169 2.168h-1.827v-1.826h1.827zm2.039 23.303h2.014v2.66h-2.014z"/><path class="cls-52" d="M256.813 434.488h2.014v.694h-2.014z"/><path class="cls-53" d="M257.818 435.183h2.014v2.66h-2.014z"/><path class="cls-49" d="M246.936 407.662h2.015v1.056h-2.015z"/><path class="cls-52" d="M247.943 406.971h2.014v.691h-2.014z"/><path class="cls-53" d="M248.951 407.662h2.014v1.056h-2.014z"/></g><g><path class="cls-37" d="M291.816 448.677h12.938V450h-12.938z"/><path class="cls-22" d="M291.816 416.465h12.938v1.786h-12.938z"/><path class="cls-31" d="M295.784 422.221h8.971v-1.325h-10.293l1.322 1.325z"/><path class="cls-36" d="M294.462 420.896h-2.646v1.325h3.968l-1.322-1.325z"/><path class="cls-31" d="M298.431 424.866h6.324v-1.323h-7.648l1.324 1.323z"/><path class="cls-36" d="M297.107 423.543h-5.291v1.323h6.615l-1.324-1.323zm2.646 2.646h-7.937v1.322h9.26l-1.323-1.322z"/><path class="cls-31" d="M301.076 427.511h3.679v-1.322h-5.002l1.323 1.322z"/><path class="cls-36" d="M302.399 428.834h-10.583v1.323h11.906l-1.323-1.323z"/><path class="cls-31" d="M303.722 430.157h1.033v-1.323h-2.356l1.323 1.323z"/><path class="cls-36" d="M291.816 431.479h12.938v1.323h-12.938zm0 2.646h12.938v1.323h-12.938zm0 2.646h12.938v1.322h-12.938zm0 2.646h12.938v1.323h-12.938zm0 2.646h12.938v1.322h-12.938zm0 2.646h12.938v1.322h-12.938zm0 2.645h12.938v1.323h-12.938z"/><path class="cls-66" d="M295.784 422.221h-3.968v1.322h5.291l-1.323-1.322z"/><path class="cls-67" d="M297.107 423.543h7.648v-1.322h-8.971l1.323 1.322z"/><path class="cls-36" d="M291.816 418.251v1.323h1.324l-1.324-1.323z"/><path class="cls-31" d="M304.755 419.574v-1.323h-12.939l1.324 1.323h11.615z"/><path class="cls-66" d="M293.14 419.574h-1.324v1.322h2.646l-1.322-1.322z"/><path class="cls-67" d="M294.462 420.896h10.293v-1.322H293.14l1.322 1.322z"/><path class="cls-66" d="M298.431 424.866h-6.615v1.323h7.937l-1.322-1.323z"/><path class="cls-67" d="M299.753 426.189h5.002v-1.323h-6.324l1.322 1.323zm2.646 2.645h2.356v-1.323h-3.679l1.323 1.323z"/><path class="cls-66" d="M301.076 427.511h-9.26v1.323h10.583l-1.323-1.323zm2.646 2.646h-11.906v1.322h12.939v-.291l-1.033-1.031z"/><path class="cls-67" d="M304.755 431.188v-1.031h-1.033l1.033 1.031z"/><path class="cls-66" d="M291.816 432.803h12.938v1.322h-12.938zm0 2.645h12.938v1.322h-12.938zm0 2.645h12.938v1.324h-12.938zm0 2.647h12.938v1.323h-12.938zm0 2.646h12.938v1.323h-12.938zm0 2.645h12.938v1.322h-12.938z"/><path class="cls-22" d="M284.185 419.574h7.632V450h-7.632z"/><path class="cls-31" d="M284.897 420.897h6.919v1.324h-6.919zm0 2.646h6.919v1.323h-6.919zm0 2.647h6.919v1.321h-6.919zm0 2.644h6.919v1.323h-6.919zm0 2.645h6.919v1.323h-6.919zm0 2.646h6.919v1.323h-6.919zm0 2.646h6.919v1.322h-6.919zm0 2.646h6.919v1.323h-6.919zm0 2.646h6.919v1.322h-6.919zm0 2.646h6.919v1.322h-6.919zm0 2.645h6.919v1.323h-6.919z"/><path class="cls-67" d="M284.897 422.221h6.919v1.322h-6.919zm0 2.645h6.919v1.323h-6.919zm0 2.645h6.919v1.323h-6.919zm0 2.646h6.919v1.322h-6.919zm0 2.646h6.919v1.322h-6.919zm0 2.645h6.919v1.322h-6.919zm0 2.645h6.919v1.324h-6.919zm0 2.647h6.919v1.323h-6.919zm0 2.646h6.919v1.323h-6.919zm0 2.645h6.919v1.322h-6.919z"/><path class="cls-22" d="M314.155 432.803h6.918V450h-6.918z"/><path class="cls-31" d="M314.155 434.125h6.918v1.323h-6.918zm0 2.646h6.918v1.322h-6.918zm0 2.646h6.918v1.323h-6.918zm0 2.646h6.918v1.322h-6.918zm0 2.646h6.918v1.322h-6.918zm0 2.645h6.918v1.323h-6.918z"/><path class="cls-67" d="M314.155 435.448h6.918v1.322h-6.918zm0 2.645h6.918v1.324h-6.918zm0 2.647h6.918v1.323h-6.918zm0 2.646h6.918v1.323h-6.918zm0 2.645h6.918v1.322h-6.918z"/><path class="cls-22" d="M304.755 427.511h9.4V450h-9.4z"/><path class="cls-31" d="M304.755 428.834h9.4v1.323h-9.4zm0 2.645h9.4v1.323h-9.4zm0 2.646h9.4v1.323h-9.4zm0 2.646h9.4v1.322h-9.4zm0 2.646h9.4v1.323h-9.4zm0 2.646h9.4v1.322h-9.4zm0 2.646h9.4v1.322h-9.4zm0 2.645h9.4v1.323h-9.4z"/><path class="cls-67" d="M304.755 430.157h9.4v1.322h-9.4zm0 2.646h9.4v1.322h-9.4zm0 2.645h9.4v1.322h-9.4zm0 2.645h9.4v1.324h-9.4zm0 2.647h9.4v1.323h-9.4zm0 2.646h9.4v1.323h-9.4zm0 2.645h9.4v1.322h-9.4z"/><path class="cls-38" d="M283.421 418.251h8.396v2.646h-8.396zm30.733 13.228h8.131v2.646h-8.131zm-9.399-5.289h10.696v2.644h-10.696zm-14.107-10.584h15.291v2.644h-15.291zm14.107 13.228h.712v19.843h-.712zm-20.57-7.937h.713v27.78h-.713zm29.97 13.228h.713v14.552h-.713z"/><path class="cls-38" d="M292.528 418.251h-.712l.712.712v-.712z"/><path class="cls-56" d="M291.816 418.251v30.426h.712v-29.714l-.712-.712z"/><path class="cls-68" d="M298.294 413.599h5.168v2.008h-5.168z"/><path class="cls-69" d="M293.126 413.599h5.168v2.008h-5.168z"/></g></g></svg>