<svg xmlns="http://www.w3.org/2000/svg" xmlns:xlink="http://www.w3.org/1999/xlink" viewBox="0 0 924.74418 953.53029"><defs><linearGradient id="c" x1="402.656" y1="808.321" x2="396.656" y2="-114.13" gradientUnits="userSpaceOnUse"><stop offset="0" stop-color="#cfd6dd"/><stop offset="1" stop-color="#fff"/></linearGradient><clipPath id="d"><path fill="none" d="M0 0h800v800H0z"/></clipPath><linearGradient id="a" x1="859.74" y1="117.404" x2="862.72" y2="510.766" gradientTransform="rotate(-44.998 713.362 1416.402) scale(1.3699 1)" gradientUnits="userSpaceOnUse"><stop offset="0" stop-color="#b3b3b3"/><stop offset=".77" stop-color="#fff"/></linearGradient><radialGradient id="e" cx="183.9" cy="355.63" r="226.316" gradientUnits="userSpaceOnUse"><stop offset=".26" stop-color="#36b649"/><stop offset=".76" stop-color="#57c965"/></radialGradient><radialGradient id="b" cx="165.581" cy="300.759" r="138.833" gradientUnits="userSpaceOnUse"><stop offset=".219" stop-color="#e7e7e7"/><stop offset=".883" stop-color="#fcfcfc"/></radialGradient><radialGradient id="f" cx="167.047" cy="271.677" r="62.109" gradientUnits="userSpaceOnUse"><stop offset=".219" stop-color="#e7e7e7"/><stop offset=".883" stop-color="#fff"/></radialGradient><linearGradient id="g" x1="968.132" y1="267.312" x2="971.113" y2="660.674" xlink:href="#a"/><radialGradient id="h" cx="363.57" cy="333.864" r="233.122" gradientUnits="userSpaceOnUse"><stop offset=".097" stop-color="#ffd879"/><stop offset=".154" stop-color="#fccb76"/><stop offset=".258" stop-color="#f5aa6c"/><stop offset=".398" stop-color="#e9755e"/><stop offset=".449" stop-color="#e45f58"/><stop offset=".679" stop-color="#d22a9c"/><stop offset="1" stop-color="#6968df"/></radialGradient><linearGradient id="i" x1="1076.783" y1="414.745" x2="1079.763" y2="808.107" xlink:href="#a"/><radialGradient id="j" cx="607.99" cy="295.579" r="127.192" gradientUnits="userSpaceOnUse"><stop offset=".168" stop-color="#c2181e"/><stop offset=".765" stop-color="#de2925"/></radialGradient><linearGradient id="k" x1="755.235" y1="262.251" x2="758.215" y2="655.613" xlink:href="#a"/><linearGradient id="l" x1="863.799" y1="414.281" x2="866.779" y2="807.643" xlink:href="#a"/><radialGradient id="m" cx="401.335" cy="562.472" r="236.936" gradientUnits="userSpaceOnUse"><stop offset="0" stop-color="#3b5998"/><stop offset=".301" stop-color="#3b5998"/><stop offset="1" stop-color="#5f83cf"/></radialGradient><linearGradient id="n" x1="972.192" y1="558.061" x2="975.172" y2="951.423" xlink:href="#a"/><radialGradient id="o" cx="604.451" cy="535.861" r="225.671" gradientUnits="userSpaceOnUse"><stop offset=".092" stop-color="#faf707"/><stop offset=".73" stop-color="#fffc00"/></radialGradient><linearGradient id="p" x1="650.798" y1="406.503" x2="653.779" y2="799.865" xlink:href="#a"/><radialGradient id="q" cx="118.641" cy="742.448" r="173.724" xlink:href="#b"/><clipPath id="r"><circle cx="189.854" cy="637.633" r="63.48" fill="none"/></clipPath><linearGradient id="s" x1="634.308" y1="456.371" x2="635.134" y2="565.418" gradientTransform="rotate(-45 691.99 1364.982) scale(1.32187 .99999)" xlink:href="#a"/><linearGradient id="t" x1="573.201" y1="-111.634" x2="573.873" y2="-22.931" gradientTransform="rotate(-45 1092.34 402.656) scale(.54377 .4756)" xlink:href="#a"/><linearGradient id="u" x1="759.191" y1="553.583" x2="762.171" y2="946.945" xlink:href="#a"/><linearGradient id="v" x1="867.584" y1="701.37" x2="870.564" y2="1094.731" xlink:href="#a"/></defs><title>335 [Converted]</title><g data-name="Layer 1" style="isolation:isolate"><path fill="url(#c)" d="M0 0h800v800H0z"/><path d="M117.446 86.013a13.961 13.961 0 0 1-5.543-3.269 7.143 7.143 0 0 1-2.122-5.26 7.54 7.54 0 0 1 12.855-5.311 9.233 9.233 0 0 1 2.092 3.842l-3.782 1.489a7.327 7.327 0 0 0-1.247-2.414 3.412 3.412 0 0 0-4.768.01 3.225 3.225 0 0 0-.986 2.384 3.258 3.258 0 0 0 .986 2.393 10.864 10.864 0 0 0 3.058 1.992 15.826 15.826 0 0 1 6.417 3.862 9.575 9.575 0 0 1 2.957 7.081 10.029 10.029 0 0 1-17.14 7.102 11.263 11.263 0 0 1-2.976-6.498l4.043-1.469q.382 3.561 1.87 5.05a5.896 5.896 0 0 0 8.33-8.348 12.22 12.22 0 0 0-4.044-2.636zm41.58-11.265a16.463 16.463 0 1 1-11.647-4.828 15.872 15.872 0 0 1 11.647 4.828zm-11.647-.624a12.276 12.276 0 0 0-8.67 20.962 12.276 12.276 0 0 0 17.35-17.371 11.828 11.828 0 0 0-8.68-3.59zm46.932 20.74l3.118 2.797q-5.713 5.21-12.09 5.21a16.444 16.444 0 0 1-11.628-28.063 15.807 15.807 0 0 1 11.628-4.828q6.377 0 12.09 5.21l-3.118 2.837a13.415 13.415 0 0 0-8.972-3.822 12.24 12.24 0 0 0-8.64 20.901 11.796 11.796 0 0 0 8.64 3.58 13.413 13.413 0 0 0 8.972-3.822zm12.693-24.522v32.187h-4.164V70.342zm18.407 0l11.708 32.187h-4.426l-4.144-11.386h-8.529l-4.124 11.386h-4.446l11.708-32.187zm1.63 16.636l-2.756-7.543-2.736 7.543zm14.101 15.551V70.342h4.165v28.003h11.506v4.184zm39.529-32.187l10.44 18.045 10.401-18.045h3.802v32.187h-4.164V79.274l-10.038 17.38-10.079-17.38v23.255h-4.164V70.342zm49.004 0v4.164H316.5v9.837h13.176v4.165H316.5v9.837h13.176v4.184h-17.34V70.342zm8.59 0q7.845.04 12.231 4.446a16.513 16.513 0 0 1 0 23.295q-4.386 4.406-12.23 4.446h-3.059V70.342zm1.107 4.245v23.717a10.994 10.994 0 0 0 8.147-3.198 12.288 12.288 0 0 0 0-17.34 11.032 11.032 0 0 0-8.147-3.18zm25.548-4.245v32.187h-4.165V70.342zm18.406 0l11.708 32.187h-4.426l-4.144-11.386h-8.53l-4.123 11.386h-4.446l11.708-32.187zm1.63 16.636l-2.756-7.543-2.736 7.543zm30.416-16.636l12.09 20.922 12.07-20.922h2.072l-.08.14v32.047h-1.811V73.62l-12.251 21.203L415.19 73.62v28.908h-1.81V70.483l-.08-.14zm53.59 32.187h-1.81v-4.024a13.472 13.472 0 0 1-1.147 1.348 11.054 11.054 0 1 1 0-15.63 13.592 13.592 0 0 1 1.146 1.347v-2.796h1.81zm-1.81-8.69v-3.581a9.038 9.038 0 1 0 0 3.58zm7.845-11.065h1.81v3.601a11.63 11.63 0 0 1 1.308-1.549 7.529 7.529 0 0 1 4.908-2.514v1.971a5.574 5.574 0 0 0-3.54 1.911 8.696 8.696 0 0 0-2.675 6.136v10.199h-1.81zm22.088 0l-4.868 6.035 7.764 13.72h-2.253l-6.698-12.271-1.77 2.192v10.079h-1.81V74.366h1.81v15.188l5.491-6.78zm9.958 16.053a8.702 8.702 0 0 0 6.075 2.334 8.797 8.797 0 0 0 6.457-2.676q.343-.342.645-.704l1.91.684a11.434 11.434 0 0 1-1.187 1.388 11.038 11.038 0 1 1-.965-16.516q.483.403.965.886c.122.12.235.241.342.362l-1.367 1.368zm11.547-14.101a9.128 9.128 0 0 0-12.775 12.773zm11.184-1.952v-8.408h1.811v8.408h4.023v1.811h-4.023v17.944h-1.81V84.585h-4.024v-1.81zm13.247-6.477a1.71 1.71 0 0 1 .534 1.267 1.732 1.732 0 0 1-.534 1.288 1.822 1.822 0 0 1-2.554 0 1.732 1.732 0 0 1-.533-1.288 1.71 1.71 0 0 1 .533-1.267 1.822 1.822 0 0 1 2.554 0zm-.372 6.477v19.755h-1.81V82.774zm8.248 4.406v15.349h-1.81V82.774h1.81v1.267a7.921 7.921 0 0 1 5.753-2.454 7.604 7.604 0 0 1 7.947 7.725v13.217h-1.81V89.473a5.792 5.792 0 0 0-1.821-4.295 6.145 6.145 0 0 0-8.62-.03 6.785 6.785 0 0 0-1.449 2.032zm39.187 11.426a15.618 15.618 0 0 1-1.086 1.247 11.034 11.034 0 1 1 0-15.63 13.714 13.714 0 0 1 1.146 1.347v-2.796h1.811v15.35a10.367 10.367 0 0 1-3.158 7.604 11.05 11.05 0 0 1-15.631 0 11.443 11.443 0 0 1-1.187-1.389l1.912-.684q.301.363.643.704a9.13 9.13 0 0 0 15.55-5.753zm.04-8.449a9.026 9.026 0 1 0 0 3.822zm23.999 1.207v11.165h-1.81V70.342h8.449a10.65 10.65 0 0 1 6.256 3.078 10.511 10.511 0 0 1-7.423 17.944zm0-19.191v17.36h5.472a8.68 8.68 0 0 0 0-17.36zm39.569 30.356h-1.81v-4.024a13.46 13.46 0 0 1-1.147 1.348 11.054 11.054 0 1 1 0-15.63 13.58 13.58 0 0 1 1.147 1.347v-2.796h1.81zm-1.81-8.69v-3.581a9.039 9.039 0 1 0 0 3.58zm24.784 3.942l1.91.684a11.443 11.443 0 0 1-1.186 1.388 11.054 11.054 0 1 1 0-15.63 12.424 12.424 0 0 1 1.186 1.368l-1.91.704q-.302-.363-.644-.725a9.133 9.133 0 1 0 0 12.915q.342-.342.644-.704zm16.072-15.007l-4.868 6.035 7.765 13.72h-2.253l-6.698-12.271-1.77 2.192v10.079h-1.811V74.366h1.81v15.188l5.491-6.78z" fill="#1a1a1a"/><g clip-path="url(#d)"><path fill="url(#a)" style="mix-blend-mode:multiply" d="M504.224 392.225l-154.49 154.482-240.397-240.386 23.556-134.979 130.938-19.504 240.393 240.387z"/><path d="M277.813 284.103a36.13 36.13 0 0 1-36.133 36.133H138.03a36.135 36.135 0 0 1-36.138-36.133V180.455a36.136 36.136 0 0 1 36.138-36.137h103.65a36.13 36.13 0 0 1 36.132 36.137z" fill="url(#e)"/><path d="M191.037 167.421a64.245 64.245 0 0 0-55.24 97.05l-8.1 32.661 32.197-9.27a64.247 64.247 0 1 0 31.143-120.44zm.727 117.828a53.07 53.07 0 0 1-30.218-9.4l-18.333 5.283 4.685-18.888a53.334 53.334 0 1 1 43.866 23.005z" fill="url(#b)"/><path d="M174.794 226.58q1.119-1.285 2.231-2.57c1.252-1.453 3.126-2.853 3.223-4.942a14.606 14.606 0 0 0-1.331-5.827c-.456-1.17-.925-2.339-1.375-3.518-.811-2.137-1.86-5.128-3.04-6.381a5.696 5.696 0 0 0-6.5-1.012s-12.605 6.059-8.724 18.183c0 0 7.515 34.182 45.34 41.213 0 0 13.572 1.943 17.208-6.305a14.539 14.539 0 0 0 1.188-6.214c-.13-1.878-1.453-3.121-3-4.015-1.993-1.14-3.766-2.208-6.036-3.33-1.971-.967-4.236-2.403-6.503-1.779-1.662.46-2.856 1.979-3.98 3.186-1.47 1.556-2.972 3.094-4.457 4.64 0 0-19.154-7.034-24.244-21.329z" fill="url(#f)"/><path fill="url(#g)" style="mix-blend-mode:multiply" d="M715.224 393.225L560.733 547.707 320.337 307.321l23.556-134.979 130.938-19.504 240.393 240.387z"/><path d="M487.959 284.107a36.14 36.14 0 0 1-36.134 36.133H348.172a36.136 36.136 0 0 1-36.134-36.133V180.458a36.14 36.14 0 0 1 36.134-36.144h103.653a36.144 36.144 0 0 1 36.134 36.144z" fill="url(#h)"/><g fill="#fff"><path d="M425.459 165.94h-50.92a40.88 40.88 0 0 0-40.88 40.883v50.916a40.876 40.876 0 0 0 40.88 40.874h50.92a40.874 40.874 0 0 0 40.877-40.874v-50.916a40.877 40.877 0 0 0-40.877-40.884zm28.143 86.911a33.03 33.03 0 0 1-33.029 33.03h-41.148a33.029 33.029 0 0 1-33.034-33.03v-41.148a33.037 33.037 0 0 1 33.034-33.032h41.148a33.038 33.038 0 0 1 33.029 33.032z"/><path d="M401.777 197.564a34.945 34.945 0 1 0 34.946 34.944 34.943 34.943 0 0 0-34.946-34.945zm0 55.968a21.025 21.025 0 1 1 21.024-21.024 21.026 21.026 0 0 1-21.024 21.024z"/><circle cx="434.303" cy="197.016" r="8.886"/></g><path fill="url(#i)" style="mix-blend-mode:multiply" d="M924.724 392.225L770.233 546.707 529.837 306.321l23.556-134.979 130.938-19.504 240.393 240.387z"/><path d="M698.105 284.098a36.143 36.143 0 0 1-36.132 36.14h-103.65a36.14 36.14 0 0 1-36.138-36.14v-103.65a36.133 36.133 0 0 1 36.137-36.132h103.65a36.136 36.136 0 0 1 36.133 36.133z" fill="#fff"/><path d="M676.25 248.23c0 16.665-5.7 30.17-22.354 30.17h-85.722c-16.663 0-24.139-13.505-24.139-30.17v-31.905c0-16.664 6.767-30.168 23.427-30.168h87.137c16.664 0 21.651 13.504 21.651 30.168z" fill="url(#j)"/><path fill="#fff" d="M596.894 214.252l36.013 18.798-36.013 18.791v-37.589z"/><path fill="#e8e0e0" d="M596.894 214.538l31.321 20.952 4.692-2.44-33.231-17.342-2.782-1.208v.038z"/><path fill="url(#k)" style="mix-blend-mode:multiply" d="M505.411 595.88l-154.49 154.482-240.397-240.385 23.556-134.979 130.939-19.505L505.411 595.88z"/><path d="M277.813 486.783a36.132 36.132 0 0 1-36.133 36.133H138.025a36.132 36.132 0 0 1-36.132-36.133V383.134a36.14 36.14 0 0 1 36.132-36.14H241.68a36.14 36.14 0 0 1 36.132 36.14z" fill="#fff"/><circle cx="189.851" cy="434.954" r="59.084" fill="#bc081c"/><path d="M183.276 462.581a19.471 19.471 0 0 0 20.133 5.531 41.106 41.106 0 0 0 4.346-1.583 26.996 26.996 0 0 0 7.563-4.78c6.347-5.789 9.8-13.079 11.403-21.363 2.083-10.77.192-20.813-6.61-29.449-4.134-5.247-9.97-8.69-16.204-10.865a42.094 42.094 0 0 0-26.498-.552 39.029 39.029 0 0 0-7.152 3.14 35.095 35.095 0 0 0-16.679 20.777 41.837 41.837 0 0 0-1.305 7.303 31.072 31.072 0 0 0 3.437 17.106c.425.838.962 1.605 1.363 2.453a14.925 14.925 0 0 0 4.164 5.361 4.446 4.446 0 0 0 2.907 1.115c1.49-.103 1.863-1.533 2.273-2.766a40.137 40.137 0 0 0 .902-4.196 3.408 3.408 0 0 0-.489-3.167c-6.274-8.91-4.12-23.336 3.61-30.562 7.01-6.537 14.96-8.451 23.863-7.19a23.173 23.173 0 0 1 18.112 13.808 30.514 30.514 0 0 1 1.722 10.477 32.15 32.15 0 0 1-2.497 13.28 23.478 23.478 0 0 1-7.161 9.853c-4.816 3.634-14.932 5.211-16.97-2.355a14.595 14.595 0 0 1-.187-6.167c.952-4.752 2.774-9.264 3.868-13.968a15.423 15.423 0 0 0 .28-7.593c-.806-3.021-2.683-4.972-5.819-5.396a8.651 8.651 0 0 0-8.403 3.175c-4.043 5.415-4.558 11.606-2.572 17.98a6.977 6.977 0 0 1 .223 3.975c-1.909 7.736-3.57 15.534-5.558 23.245a53.65 53.65 0 0 0-1.553 16.02 24.163 24.163 0 0 0 .447 4.472c.226.984.588 2.387 1.552 2.903 1.334.706 2.466-.996 3.093-1.92a51.938 51.938 0 0 0 5.867-11.878c.95-2.699 1.69-5.463 2.411-8.234.255-.973 1.66-5.999 2.118-7.99z" fill="#fff" fill-rule="evenodd"/><path fill="url(#l)" style="mix-blend-mode:multiply" d="M718.077 598.214l-154.49 154.482-240.396-240.385 23.556-134.979 130.938-19.505 240.392 240.387z"/><path d="M487.96 486.777a36.13 36.13 0 0 1-36.132 36.135H348.176a36.133 36.133 0 0 1-36.138-36.135V383.13a36.134 36.134 0 0 1 36.138-36.133h103.652a36.13 36.13 0 0 1 36.132 36.133z" fill="url(#m)"/><path d="M447.299 395.354h16.228v-25.507h-24.32s-15.29-.38-25.039 12.29c0 0-6.639 6.26-6.74 24.589h-.005v19.13h-24.038v27.085h24.038v69.971h27.724v-69.97h23.851l3.324-27.086h-27.175v-19.13h-.006c.067-2.137 1.018-11.564 12.158-11.372z" fill="#fff"/><path fill="url(#n)" style="mix-blend-mode:multiply" d="M924.744 594.881l-154.49 154.482-240.396-240.385 23.555-134.979 130.939-19.505 240.392 240.387z"/><path d="M698.105 486.785a36.135 36.135 0 0 1-36.132 36.133h-103.66a36.13 36.13 0 0 1-36.128-36.133V383.133a36.135 36.135 0 0 1 36.127-36.142h103.66a36.14 36.14 0 0 1 36.133 36.142z" fill="url(#o)"/><path d="M579.245 395.847c.22-.498.465-.978.701-1.465a32.423 32.423 0 0 1 5.66-8.091 29.84 29.84 0 0 1 6.64-5.157 31.723 31.723 0 0 1 6.684-2.862 34.816 34.816 0 0 1 5.835-1.235 43.26 43.26 0 0 1 5.745-.294 43.974 43.974 0 0 1 5.688.359 35.575 35.575 0 0 1 6.023 1.428 31.696 31.696 0 0 1 6.757 3.147 30.02 30.02 0 0 1 6.582 5.544 34.181 34.181 0 0 1 5.478 8.606c2.613 5.856 1.935 16.46 1.398 24.978-.086 1.35-.165 2.659-.232 3.912l-.023.53.345.408a6.482 6.482 0 0 0 4.53 1.695h.095a12.855 12.855 0 0 0 3.885-.74 33.961 33.961 0 0 1 3.421-1.24 5.44 5.44 0 0 1 4.349 1.298c.826.958-.085 2.207-.849 2.815a14.077 14.077 0 0 1-3.652 1.971c-.453.176-1.036.36-1.708.578-2.952.933-7.42 2.35-8.917 5.885-.837 1.997-.618 4.344.69 6.994.53 1.244 8.968 20.238 27.927 23.36a.773.773 0 0 1-.078.3c-.324.757-2.37 3.37-15.07 5.332-2.003.31-2.488 2.54-3.048 5.13-.204.926-.413 1.863-.702 2.831-.085.294-.101.312-.412.312h-.148a14.136 14.136 0 0 1-2.414-.312 37.52 37.52 0 0 0-7.435-.78 32.724 32.724 0 0 0-5.395.452c-3.885.651-7.051 2.89-10.404 5.255a52.866 52.866 0 0 1-6.367 4.047 21.81 21.81 0 0 1-7.85 2.33c-.615.057-1.232.068-1.837.097a23.911 23.911 0 0 1-8.6-1.116 29.803 29.803 0 0 1-6.832-3.545c-.882-.587-1.747-1.203-2.612-1.813-3.353-2.364-6.52-4.604-10.405-5.255a32.675 32.675 0 0 0-5.393-.452 36.928 36.928 0 0 0-7.43.826 15.518 15.518 0 0 1-2.41.367c-.463 0-.469-.023-.565-.367-.293-.968-.492-1.922-.696-2.85-.57-2.602-1.057-4.834-3.048-5.14-12.71-1.963-14.757-4.586-15.08-5.338a1.567 1.567 0 0 1-.079-.311c18.971-3.122 27.396-22.104 27.928-23.36 1.306-2.639 1.538-4.997.69-6.994-1.499-3.534-5.955-4.952-8.913-5.885-.677-.219-1.26-.402-1.702-.578-1.747-.69-7.107-3.204-3.624-5.35a4.222 4.222 0 0 1 2.466-.697 9.066 9.066 0 0 1 2.64.844 15.349 15.349 0 0 0 5.366 1.115c3.298 0 4.762-1.535 4.92-1.71l.345-.409-.017-.53c-.073-1.243-.148-2.563-.238-3.905-.537-8.525-1.204-19.113 1.397-24.965zm14.674-18.974a33.13 33.13 0 0 0-9.505 6.305 35.375 35.375 0 0 0-7.945 11.417c-2.918 6.536-2.229 17.546-1.68 26.392l.012.018c.057.941.118 1.933.175 2.9a5.182 5.182 0 0 1-2.138.397 12.531 12.531 0 0 1-4.444-.968 11.176 11.176 0 0 0-3.783-1.022 7.254 7.254 0 0 0-3.704 1.068 5.46 5.46 0 0 0-2.759 3.546 4.9 4.9 0 0 0 1.86 4.586 16.065 16.065 0 0 0 4.858 2.787c.554.22 1.21.424 1.899.643 2.42.776 6.073 1.935 7.036 4.174.473 1.136.27 2.63-.63 4.445-.015.043-.038.09-.055.147a43.076 43.076 0 0 1-13.475 16.552 30.694 30.694 0 0 1-6.023 3.277 59.38 59.38 0 0 1-5.88 1.617c-1.583.444-2.901 1.477-2.794 3.286a3.967 3.967 0 0 0 .318 1.341c.622 1.458 2.057 2.698 4.416 3.788a50.597 50.597 0 0 0 12.75 3.326 16.043 16.043 0 0 1 .781 2.816c.203.983.425 1.995.746 3.064a3.344 3.344 0 0 0 3.5 2.561 17.083 17.083 0 0 0 2.991-.422 34.349 34.349 0 0 1 6.849-.777 29.749 29.749 0 0 1 4.896.42c3.19.53 5.949 2.47 9.131 4.727.279.187.545.378.816.57a49.514 49.514 0 0 0 6.129 3.806 25.333 25.333 0 0 0 7.64 2.421 31.888 31.888 0 0 0 4.62.231 29.255 29.255 0 0 0 5.072-.435 25.886 25.886 0 0 0 7.395-2.736q1.604-.868 3.121-1.896a32.172 32.172 0 0 0 2.846-1.96v-.007c3.194-2.25 5.942-4.19 9.137-4.721a29.693 29.693 0 0 1 4.892-.42 33.94 33.94 0 0 1 6.847.731 16.328 16.328 0 0 0 3.002.366h.148a3.301 3.301 0 0 0 3.347-2.51c.317-1.052.538-2.036.747-3.041a15.474 15.474 0 0 1 .786-2.8 50.492 50.492 0 0 0 12.74-3.32c2.346-1.096 3.793-2.33 4.416-3.777a4.128 4.128 0 0 0 .323-1.346 3.05 3.05 0 0 0-2.552-3.182c-17.432-2.88-25.293-20.786-25.614-21.55a2.222 2.222 0 0 1-.069-.147c-.9-1.816-1.102-3.309-.616-4.445.95-2.239 4.603-3.398 7.024-4.174a29.4 29.4 0 0 0 1.899-.643 14.654 14.654 0 0 0 5.208-3.121 4.91 4.91 0 0 0 1.584-3.564c-.063-3.386-3.404-5.236-6.379-5.32a12.593 12.593 0 0 0-4.54.994 13.044 13.044 0 0 1-4.18 1.005 4.795 4.795 0 0 1-1.802-.396c.054-.811.1-1.649.158-2.522l.027-.38c.549-8.854 1.25-19.864-1.669-26.409a35.59 35.59 0 0 0-7.983-11.453 33.077 33.077 0 0 0-9.533-6.305 37.833 37.833 0 0 0-11.474-2.967c-1.509-.146-3.07-.265-4.58-.265a43.573 43.573 0 0 0-10.003 1.151 36.665 36.665 0 0 0-6.333 2.126z" fill="#020202"/><path d="M657.148 473.903c12.7-1.963 14.747-4.575 15.07-5.333a.773.773 0 0 0 .079-.3c-18.96-3.12-27.397-22.115-27.927-23.359-1.308-2.65-1.527-4.997-.69-6.994 1.498-3.534 5.965-4.952 8.917-5.885.672-.219 1.255-.402 1.708-.578a14.077 14.077 0 0 0 3.652-1.97c.764-.609 1.675-1.858.849-2.816a5.44 5.44 0 0 0-4.349-1.299 33.961 33.961 0 0 0-3.42 1.241 12.855 12.855 0 0 1-3.886.74h-.095a6.482 6.482 0 0 1-4.53-1.695l-.345-.408.023-.53c.067-1.253.146-2.563.232-3.912.537-8.518 1.215-19.122-1.398-24.978a34.181 34.181 0 0 0-5.478-8.606 30.02 30.02 0 0 0-6.582-5.544 31.696 31.696 0 0 0-6.757-3.147 35.575 35.575 0 0 0-6.023-1.428 43.974 43.974 0 0 0-5.688-.359 43.26 43.26 0 0 0-5.745.294 34.816 34.816 0 0 0-5.835 1.235 31.723 31.723 0 0 0-6.685 2.862 29.84 29.84 0 0 0-6.639 5.157 32.423 32.423 0 0 0-5.66 8.091c-.236.487-.48.967-.7 1.465-2.602 5.852-1.935 16.44-1.398 24.965.09 1.342.165 2.662.238 3.905l.017.53-.345.408c-.158.176-1.622 1.711-4.92 1.711a15.349 15.349 0 0 1-5.365-1.115 9.066 9.066 0 0 0-2.641-.844 4.222 4.222 0 0 0-2.466.697c-3.483 2.146 1.877 4.66 3.624 5.35.443.176 1.025.36 1.702.578 2.958.933 7.414 2.35 8.913 5.885.848 1.997.616 4.355-.69 6.994-.532 1.256-8.957 20.238-27.928 23.36a1.567 1.567 0 0 0 .08.311c.322.752 2.369 3.375 15.08 5.338 1.99.306 2.476 2.538 3.047 5.14.204.928.403 1.882.696 2.85.096.344.102.367.565.367a15.518 15.518 0 0 0 2.41-.367 36.928 36.928 0 0 1 7.43-.826 32.675 32.675 0 0 1 5.393.452c3.885.651 7.052 2.89 10.405 5.255.865.61 1.73 1.226 2.612 1.813a29.803 29.803 0 0 0 6.832 3.545 23.911 23.911 0 0 0 8.6 1.116c.605-.029 1.222-.04 1.838-.097a21.81 21.81 0 0 0 7.85-2.33 52.866 52.866 0 0 0 6.366-4.047c3.353-2.364 6.519-4.604 10.404-5.255a32.724 32.724 0 0 1 5.395-.452 37.52 37.52 0 0 1 7.435.78 14.136 14.136 0 0 0 2.414.312h.148c.31 0 .327-.018.412-.312.29-.968.498-1.905.702-2.83.56-2.592 1.045-4.82 3.047-5.13z" fill="#fff"/><path fill="url(#p)" style="mix-blend-mode:multiply" d="M506.244 799.048L351.754 953.53 111.358 713.145l23.555-134.979 130.939-19.505 240.392 240.387z"/><path d="M277.815 689.456a36.14 36.14 0 0 1-36.135 36.139H138.03a36.142 36.142 0 0 1-36.137-36.139V585.802a36.136 36.136 0 0 1 36.137-36.133h103.65a36.134 36.134 0 0 1 36.134 36.133z" fill="url(#q)"/><g clip-path="url(#r)"><circle cx="189.854" cy="637.633" r="63.48" fill="#db4639"/><path fill="url(#s)" style="mix-blend-mode:multiply" d="M257.941 681.443l-41.326 41.325-66.642-66.64 5.759-36.649 35.568-4.675 66.641 66.639z"/><path d="M200.907 633.097h-28.361v10.132h16.99a18.25 18.25 0 1 1-17.202-24.507 17.919 17.919 0 0 1 11.572 4.236h.475l7.484-7.606a28.723 28.723 0 0 0-19.531-7.657 29.518 29.518 0 0 0 0 59.03 28.314 28.314 0 0 0 6.251-.686 28.718 28.718 0 0 0 11.448-5.417 29.687 29.687 0 0 0 8.038-9.702 30.115 30.115 0 0 0 2.325-6.04c.683-2.606.511-5.229.511-7.911z" fill="#fff"/><path fill="url(#t)" style="mix-blend-mode:multiply" d="M259.079 656.128l-16.995 16.99-31.691-31.681 16.994-17.003 31.692 31.694z"/><path fill="#fff" d="M218.865 624.411h8.511v25.43h-8.511z"/><path fill="#fff" d="M210.409 632.875h25.429v8.506h-25.429z"/></g><path fill="url(#u)" style="mix-blend-mode:multiply" d="M715.244 798.048L560.754 952.53 320.358 712.145l23.555-134.979 130.939-19.505 240.392 240.387z"/><path d="M487.958 689.459a36.126 36.126 0 0 1-36.133 36.133H348.18a36.133 36.133 0 0 1-36.139-36.133V585.811a36.142 36.142 0 0 1 36.139-36.14h103.645a36.135 36.135 0 0 1 36.133 36.14z" fill="#007bb5"/><path d="M338.402 616.272h26.405v84.942h-26.405zm13.206-42.223a15.307 15.307 0 1 1-15.3 15.318 15.318 15.318 0 0 1 15.3-15.318m29.755 42.223h25.327v11.62h.363c3.521-6.684 12.134-13.717 24.975-13.717 26.736 0 31.672 17.586 31.672 40.451v46.588h-26.39v-41.307c0-9.85-.17-22.527-13.724-22.527-13.734 0-15.832 10.743-15.832 21.821v42.013h-26.39z" fill="#fff"/><path fill="url(#v)" style="mix-blend-mode:multiply" d="M924.744 797.548L770.254 952.03 529.858 711.645l23.555-134.979 130.939-19.505 240.392 240.387z"/><path d="M698.107 689.462a36.144 36.144 0 0 1-36.143 36.133H558.326a36.144 36.144 0 0 1-36.143-36.133V585.813a36.145 36.145 0 0 1 36.143-36.144h103.638a36.144 36.144 0 0 1 36.143 36.144z" fill="#1da1f2"/><path d="M589.194 688.608c46.239 0 71.52-38.311 71.52-71.525 0-1.086-.017-2.17-.074-3.246a50.984 50.984 0 0 0 12.536-13.017 50.368 50.368 0 0 1-14.43 3.957 25.29 25.29 0 0 0 11.055-13.904 50.59 50.59 0 0 1-15.964 6.107 25.139 25.139 0 0 0-43.478 17.184 25.7 25.7 0 0 0 .645 5.741 71.423 71.423 0 0 1-51.814-26.266 25.15 25.15 0 0 0 7.788 33.553 24.944 24.944 0 0 1-11.39-3.148c-.005.113-.005.214-.005.321a25.143 25.143 0 0 0 20.158 24.643 25.193 25.193 0 0 1-6.615.887 24.848 24.848 0 0 1-4.727-.463 25.167 25.167 0 0 0 23.478 17.467 50.404 50.404 0 0 1-31.22 10.761 50.967 50.967 0 0 1-5.993-.351 71.086 71.086 0 0 0 38.53 11.3" fill="#fff"/></g></g></svg>